<svg xmlns="http://www.w3.org/2000/svg" xmlns:xlink="http://www.w3.org/1999/xlink" width="1366" zoomAndPan="magnify" viewBox="0 0 1024.5 576" height="768" preserveAspectRatio="xMidYMid meet" version="1.0"><defs><g/><clipPath id="a594b482cb"><path d="M 100.988281 102.433594 L 923.335938 102.433594 L 923.335938 473.503906 L 100.988281 473.503906 Z M 100.988281 102.433594 " clip-rule="nonzero"/></clipPath></defs><g clip-path="url(#a594b482cb)"><path fill="#194052" d="M 100.988281 102.433594 L 923.335938 102.433594 L 923.335938 473.503906 L 100.988281 473.503906 Z M 100.988281 102.433594 " fill-opacity="1" fill-rule="nonzero"/></g><g fill="#ffffff" fill-opacity="1"><g transform="translate(322.355306, 153.941895)"><g><path d="M 17.058594 0.324219 L 18.957031 0.273438 L 19.460938 0.324219 L 19.910156 0.324219 L 20.382812 0.199219 L 20.507812 -0.324219 L 20.183594 -0.800781 L 18.832031 -2.351562 L 18.535156 -2.828125 L 18.207031 -3.175781 L 18.058594 -3.828125 L 18.058594 -4.453125 L 18.484375 -5.402344 L 18.609375 -5.929688 L 18.785156 -6.351562 L 18.984375 -7.902344 L 19.035156 -8.753906 L 18.984375 -9.453125 L 18.882812 -10.003906 L 18.882812 -10.429688 L 18.785156 -10.957031 L 18.332031 -12.40625 L 17.683594 -13.707031 L 16.78125 -14.933594 L 16.457031 -15.257812 L 15.683594 -15.933594 L 13.605469 -17.132812 L 11.679688 -17.683594 L 10.703125 -17.785156 L 9.980469 -17.734375 L 8.753906 -17.707031 L 8.230469 -17.609375 L 7.753906 -17.457031 L 7.277344 -17.410156 L 6.328125 -17.109375 L 4.175781 -15.90625 L 3.152344 -14.882812 L 1.949219 -13.257812 L 1.75 -12.855469 L 1.625 -12.332031 L 1.425781 -11.929688 L 1.125 -10.929688 L 1.101562 -10.429688 L 0.976562 -9.929688 L 0.925781 -7.980469 L 1.027344 -7.003906 L 1.402344 -5.503906 L 1.800781 -4.652344 L 1.949219 -4.175781 L 2.25 -3.75 L 2.476562 -3.277344 L 2.777344 -2.976562 L 3.101562 -2.527344 L 4.226562 -1.527344 L 5.453125 -0.726562 L 5.953125 -0.574219 L 6.351562 -0.300781 L 7.277344 -0.101562 L 7.777344 0.0507812 L 8.230469 0.148438 L 9.980469 0.273438 L 10.753906 0.25 L 11.253906 0.273438 L 11.804688 0.125 L 12.230469 -0.0234375 L 13.757812 -0.449219 L 14.40625 -0.449219 L 15.480469 0.125 L 16.109375 0.273438 L 16.558594 0.273438 Z M 9.929688 -4.101562 L 8.179688 -4.328125 L 7.703125 -4.578125 L 7.304688 -4.828125 L 6.527344 -5.601562 L 6.226562 -6.078125 L 5.804688 -6.929688 L 5.675781 -7.402344 L 5.550781 -8.703125 L 5.578125 -9.480469 L 5.804688 -10.503906 L 6.277344 -11.480469 L 6.554688 -11.90625 L 6.878906 -12.253906 L 7.753906 -12.832031 L 8.402344 -13.132812 L 9.179688 -13.40625 L 10.78125 -13.332031 L 11.457031 -13.132812 L 12.128906 -12.882812 L 12.582031 -12.554688 L 13.355469 -11.855469 L 13.679688 -11.378906 L 13.90625 -10.957031 L 14.257812 -10.03125 L 14.332031 -8.730469 L 14.28125 -7.902344 L 14.105469 -6.976562 L 13.90625 -6.453125 L 13.65625 -6.003906 L 13.332031 -5.578125 L 12.980469 -5.253906 L 12.15625 -4.601562 L 11.179688 -4.203125 Z M 9.929688 -4.101562 "/></g></g></g><g fill="#ffffff" fill-opacity="1"><g transform="translate(342.313754, 153.941895)"><g><path d="M 7.378906 0.199219 L 8.578125 0.300781 L 9.828125 0.25 L 10.832031 0.0234375 L 11.355469 -0.175781 L 11.855469 -0.300781 L 12.253906 -0.550781 L 12.707031 -0.75 L 13.105469 -1.027344 L 14.230469 -2.027344 L 14.507812 -2.476562 L 14.832031 -2.851562 L 14.980469 -3.351562 L 15.230469 -3.777344 L 15.40625 -4.253906 L 15.582031 -6.777344 L 15.507812 -8.804688 L 15.605469 -9.328125 L 15.605469 -9.78125 L 15.507812 -10.28125 L 15.480469 -10.753906 L 15.53125 -11.28125 L 15.507812 -11.980469 L 15.558594 -12.757812 L 15.53125 -13.304688 L 15.605469 -13.78125 L 15.53125 -14.28125 L 15.558594 -16.308594 L 15.480469 -16.734375 L 15.28125 -17.28125 L 14.480469 -17.507812 L 12.128906 -17.535156 L 11.582031 -17.308594 L 11.332031 -16.757812 L 11.355469 -14.308594 L 11.304688 -13.804688 L 11.332031 -12.832031 L 11.28125 -12.304688 L 11.355469 -11.78125 L 11.28125 -9.804688 L 11.378906 -9.355469 L 11.332031 -8.804688 L 11.355469 -7.902344 L 11.304688 -7.402344 L 11.332031 -6.128906 L 11.230469 -5.328125 L 11.003906 -4.851562 L 10.78125 -4.503906 L 10.378906 -4.128906 L 9.378906 -3.800781 L 8.703125 -3.75 L 7.878906 -3.800781 L 7.429688 -3.925781 L 6.878906 -4.203125 L 6.503906 -4.527344 L 6.203125 -4.878906 L 6.054688 -5.402344 L 6.003906 -9.804688 L 5.929688 -10.304688 L 5.902344 -11.855469 L 5.953125 -12.304688 L 5.953125 -14.308594 L 5.878906 -15.03125 L 5.878906 -15.507812 L 6.003906 -16.257812 L 6.003906 -16.78125 L 5.726562 -17.257812 L 5.128906 -17.484375 L 2.5 -17.507812 L 2 -17.234375 L 1.777344 -16.734375 L 1.777344 -15.230469 L 1.652344 -14.808594 L 1.75 -13.757812 L 1.675781 -12.804688 L 1.800781 -11.304688 L 1.699219 -10.832031 L 1.777344 -10.28125 L 1.726562 -9.804688 L 1.75 -9.304688 L 1.699219 -8.828125 L 1.777344 -7.828125 L 1.75 -6.027344 L 1.824219 -5.300781 L 1.824219 -4.777344 L 1.976562 -4.277344 L 2.050781 -3.800781 L 2.199219 -3.328125 L 2.703125 -2.476562 L 3.375 -1.652344 L 3.703125 -1.324219 L 4.550781 -0.824219 L 4.925781 -0.523438 L 5.402344 -0.324219 L 5.976562 -0.148438 L 6.351562 0.0507812 L 6.902344 0.0742188 Z M 7.378906 0.199219 "/></g></g></g><g fill="#ffffff" fill-opacity="1"><g transform="translate(359.57106, 153.941895)"><g><path d="M 0.324219 -0.675781 L 0.449219 -0.148438 L 0.949219 -0.0234375 L 3.152344 -0.0234375 L 3.800781 0.0507812 L 4.378906 -0.199219 L 4.828125 -0.648438 L 5.253906 -1.5 L 5.675781 -1.976562 L 6.277344 -2.226562 L 6.777344 -2.175781 L 8.179688 -2.199219 L 8.703125 -2.125 L 9.28125 -2.199219 L 9.730469 -2.199219 L 10.253906 -2.152344 L 11.429688 -2.199219 L 12.253906 -1.925781 L 12.78125 -1.527344 L 12.90625 -1.074219 L 13.179688 -0.625 L 13.605469 -0.226562 L 14.257812 0.0234375 L 14.707031 -0.0234375 L 15.582031 0.0507812 L 17.132812 0 L 17.582031 -0.148438 L 17.683594 -0.675781 L 17.535156 -1.300781 L 17.359375 -1.75 L 17.03125 -2.175781 L 16.882812 -2.675781 L 16.632812 -3.050781 L 16.484375 -3.527344 L 16.058594 -4.425781 L 15.882812 -4.902344 L 15.632812 -5.328125 L 15.28125 -6.253906 L 15.007812 -6.652344 L 14.808594 -7.152344 L 14.582031 -7.578125 L 14.40625 -8.078125 L 14.183594 -8.453125 L 14.03125 -8.953125 L 13.757812 -9.40625 L 13.554688 -9.828125 L 13.304688 -10.253906 L 13.179688 -10.730469 L 12.679688 -11.605469 L 12.53125 -12.082031 L 12.082031 -13.03125 L 11.957031 -13.429688 L 11.582031 -14.308594 L 11.082031 -15.230469 L 10.679688 -16.183594 L 10.453125 -16.558594 L 10.304688 -17.03125 L 9.855469 -17.507812 L 9.003906 -17.734375 L 8.203125 -17.484375 L 7.730469 -17.03125 L 7.578125 -16.582031 L 6.503906 -14.332031 L 6.226562 -13.882812 L 4.828125 -10.730469 L 4.703125 -10.304688 L 4.425781 -9.855469 L 4.027344 -8.953125 L 3.652344 -8.304688 L 3.476562 -7.828125 L 3.125 -7.179688 L 2.976562 -6.652344 L 2.75 -6.253906 L 2.578125 -5.753906 L 1.875 -4.453125 L 1.152344 -2.625 L 0.851562 -2.226562 L 0.625 -1.726562 Z M 8.054688 -6.179688 L 7.578125 -6.378906 L 7.503906 -6.878906 L 8.503906 -9.15625 L 8.730469 -9.554688 L 9.054688 -9.804688 L 9.355469 -9.605469 L 9.679688 -8.628906 L 9.953125 -8.203125 L 10.054688 -7.804688 L 10.304688 -7.304688 L 10.480469 -6.851562 L 10.429688 -6.402344 L 10.003906 -6.203125 Z M 8.054688 -6.179688 "/></g></g></g><g fill="#ffffff" fill-opacity="1"><g transform="translate(377.728747, 153.941895)"><g><path d="M 1.875 -0.726562 L 2.101562 -0.273438 L 2.902344 0.0234375 L 11.753906 -0.0234375 L 12.457031 -0.273438 L 12.730469 -0.726562 L 12.679688 -1.277344 L 12.707031 -1.777344 L 12.757812 -2.226562 L 12.679688 -2.777344 L 12.757812 -3.25 L 12.429688 -3.800781 L 12.03125 -4.050781 L 11.480469 -3.976562 L 7.078125 -4.027344 L 6.554688 -4.253906 L 6.402344 -4.800781 L 6.429688 -5.726562 L 6.351562 -6.203125 L 6.378906 -6.753906 L 6.328125 -7.253906 L 6.378906 -7.777344 L 6.351562 -9.027344 L 6.429688 -9.730469 L 6.351562 -10.28125 L 6.429688 -10.804688 L 6.351562 -14.707031 L 6.402344 -15.257812 L 6.351562 -16.484375 L 6.101562 -17.234375 L 5.453125 -17.535156 L 2.851562 -17.484375 L 2.125 -17.207031 L 1.800781 -16.53125 L 1.949219 -15.230469 L 1.902344 -14.757812 L 1.824219 -14.230469 L 1.902344 -13.730469 L 1.949219 -13.257812 L 1.875 -12.707031 L 1.902344 -12.230469 L 1.851562 -11.730469 L 1.925781 -11.207031 L 1.851562 -10.753906 L 1.902344 -10.253906 L 1.824219 -9.78125 L 1.902344 -8.703125 L 1.824219 -8.230469 L 1.902344 -7.226562 L 1.824219 -6.726562 L 1.851562 -5.726562 L 1.902344 -5.277344 L 1.875 -2.226562 L 1.925781 -1.726562 L 1.824219 -1.25 Z M 1.875 -0.726562 "/></g></g></g><g fill="#ffffff" fill-opacity="1"><g transform="translate(391.18444, 153.941895)"><g/></g></g><g fill="#ffffff" fill-opacity="1"><g transform="translate(397.962309, 153.941895)"><g><path d="M 1.824219 -0.75 L 2.101562 -0.175781 L 2.578125 0.0507812 L 10.855469 -0.0507812 L 11.804688 -0.175781 L 12.632812 -0.5 L 13.582031 -1.050781 L 13.90625 -1.300781 L 14.308594 -1.675781 L 14.882812 -2.5 L 15.105469 -2.976562 L 15.207031 -3.402344 L 15.40625 -3.902344 L 15.433594 -5.902344 L 15.332031 -6.378906 L 15.15625 -6.902344 L 14.707031 -7.777344 L 14.355469 -8.203125 L 13.980469 -8.578125 L 13.757812 -9.128906 L 13.855469 -9.628906 L 14.132812 -10.128906 L 14.433594 -10.554688 L 14.78125 -12.355469 L 14.757812 -13.082031 L 14.480469 -14.007812 L 14.230469 -14.480469 L 14.082031 -14.957031 L 13.480469 -15.757812 L 13.132812 -16.109375 L 12.382812 -16.632812 L 11.457031 -17.132812 L 10.054688 -17.457031 L 2.527344 -17.507812 L 2.027344 -17.28125 L 1.800781 -16.757812 L 1.851562 -15.683594 L 1.800781 -14.957031 L 1.902344 -13.28125 L 1.824219 -12.757812 L 1.875 -12.230469 L 1.824219 -11.753906 L 1.851562 -11.230469 L 1.800781 -10.753906 L 1.800781 -8.753906 L 1.875 -8.230469 L 1.824219 -7.753906 L 1.824219 -6.753906 L 1.875 -6.277344 L 1.824219 -4.226562 L 1.902344 -3.203125 L 1.800781 -1.699219 Z M 6.953125 -10.730469 L 6.351562 -10.929688 L 6.101562 -11.429688 L 6.203125 -11.855469 L 6.203125 -12.332031 L 6.152344 -12.804688 L 6.429688 -13.230469 L 6.953125 -13.507812 L 8.753906 -13.429688 L 9.53125 -13.28125 L 9.828125 -13.082031 L 10.15625 -12.730469 L 10.230469 -12.054688 L 10.105469 -11.304688 L 9.679688 -10.90625 L 8.828125 -10.730469 Z M 6.878906 -3.976562 L 6.453125 -4.175781 L 6.179688 -4.703125 L 6.203125 -5.128906 L 6.152344 -5.601562 L 6.179688 -6.101562 L 6.351562 -6.554688 L 6.851562 -6.804688 L 9.503906 -6.804688 L 10.203125 -6.679688 L 10.578125 -6.402344 L 10.957031 -6.054688 L 11.003906 -5.351562 L 10.957031 -4.703125 L 10.628906 -4.351562 L 10.179688 -4.078125 L 8.828125 -3.953125 Z M 6.878906 -3.976562 "/></g></g></g><g fill="#ffffff" fill-opacity="1"><g transform="translate(414.469294, 153.941895)"><g><path d="M 0.324219 -0.675781 L 0.449219 -0.148438 L 0.949219 -0.0234375 L 3.152344 -0.0234375 L 3.800781 0.0507812 L 4.378906 -0.199219 L 4.828125 -0.648438 L 5.253906 -1.5 L 5.675781 -1.976562 L 6.277344 -2.226562 L 6.777344 -2.175781 L 8.179688 -2.199219 L 8.703125 -2.125 L 9.28125 -2.199219 L 9.730469 -2.199219 L 10.253906 -2.152344 L 11.429688 -2.199219 L 12.253906 -1.925781 L 12.78125 -1.527344 L 12.90625 -1.074219 L 13.179688 -0.625 L 13.605469 -0.226562 L 14.257812 0.0234375 L 14.707031 -0.0234375 L 15.582031 0.0507812 L 17.132812 0 L 17.582031 -0.148438 L 17.683594 -0.675781 L 17.535156 -1.300781 L 17.359375 -1.75 L 17.03125 -2.175781 L 16.882812 -2.675781 L 16.632812 -3.050781 L 16.484375 -3.527344 L 16.058594 -4.425781 L 15.882812 -4.902344 L 15.632812 -5.328125 L 15.28125 -6.253906 L 15.007812 -6.652344 L 14.808594 -7.152344 L 14.582031 -7.578125 L 14.40625 -8.078125 L 14.183594 -8.453125 L 14.03125 -8.953125 L 13.757812 -9.40625 L 13.554688 -9.828125 L 13.304688 -10.253906 L 13.179688 -10.730469 L 12.679688 -11.605469 L 12.53125 -12.082031 L 12.082031 -13.03125 L 11.957031 -13.429688 L 11.582031 -14.308594 L 11.082031 -15.230469 L 10.679688 -16.183594 L 10.453125 -16.558594 L 10.304688 -17.03125 L 9.855469 -17.507812 L 9.003906 -17.734375 L 8.203125 -17.484375 L 7.730469 -17.03125 L 7.578125 -16.582031 L 6.503906 -14.332031 L 6.226562 -13.882812 L 4.828125 -10.730469 L 4.703125 -10.304688 L 4.425781 -9.855469 L 4.027344 -8.953125 L 3.652344 -8.304688 L 3.476562 -7.828125 L 3.125 -7.179688 L 2.976562 -6.652344 L 2.75 -6.253906 L 2.578125 -5.753906 L 1.875 -4.453125 L 1.152344 -2.625 L 0.851562 -2.226562 L 0.625 -1.726562 Z M 8.054688 -6.179688 L 7.578125 -6.378906 L 7.503906 -6.878906 L 8.503906 -9.15625 L 8.730469 -9.554688 L 9.054688 -9.804688 L 9.355469 -9.605469 L 9.679688 -8.628906 L 9.953125 -8.203125 L 10.054688 -7.804688 L 10.304688 -7.304688 L 10.480469 -6.851562 L 10.429688 -6.402344 L 10.003906 -6.203125 Z M 8.054688 -6.179688 "/></g></g></g><g fill="#ffffff" fill-opacity="1"><g transform="translate(432.626981, 153.941895)"><g><path d="M 9.203125 0.25 L 10.703125 0.324219 L 13.132812 -0.175781 L 14.507812 -0.773438 L 14.882812 -1.027344 L 15.332031 -1.300781 L 15.757812 -1.601562 L 16.082031 -1.925781 L 16.359375 -2.351562 L 16.78125 -2.675781 L 17.535156 -3.976562 L 17.757812 -4.425781 L 17.882812 -4.902344 L 18.058594 -5.402344 L 18.132812 -5.878906 L 17.984375 -6.328125 L 17.359375 -6.601562 L 14.683594 -6.628906 L 14.132812 -6.378906 L 13.632812 -5.902344 L 13.429688 -5.476562 L 12.480469 -4.453125 L 11.628906 -4.027344 L 11.128906 -3.875 L 10.605469 -3.828125 L 9.203125 -3.851562 L 7.855469 -4.351562 L 7.378906 -4.578125 L 7.054688 -4.925781 L 6.128906 -6.128906 L 5.929688 -6.554688 L 5.628906 -7.527344 L 5.550781 -8.703125 L 5.578125 -9.503906 L 5.753906 -9.953125 L 5.777344 -10.453125 L 5.929688 -10.90625 L 6.351562 -11.804688 L 6.976562 -12.582031 L 7.804688 -13.179688 L 8.277344 -13.382812 L 9.15625 -13.632812 L 10.703125 -13.582031 L 11.65625 -13.40625 L 12.179688 -13.230469 L 12.90625 -12.632812 L 13.28125 -12.230469 L 13.507812 -11.804688 L 13.957031 -11.332031 L 14.507812 -11.105469 L 17.03125 -11.054688 L 17.535156 -11.105469 L 17.933594 -11.332031 L 18.082031 -11.855469 L 17.882812 -12.355469 L 17.808594 -12.804688 L 17.410156 -13.757812 L 16.484375 -15.03125 L 15.183594 -16.207031 L 14.632812 -16.582031 L 13.207031 -17.234375 L 12.230469 -17.507812 L 10.980469 -17.683594 L 8.703125 -17.683594 L 8.277344 -17.632812 L 7.804688 -17.484375 L 6.828125 -17.28125 L 6.351562 -17.109375 L 5.976562 -16.882812 L 5.527344 -16.707031 L 3.777344 -15.582031 L 3.476562 -15.183594 L 2.800781 -14.558594 L 2.5 -14.132812 L 1.351562 -11.878906 L 0.902344 -8.753906 L 1 -7.953125 L 1 -6.953125 L 1.25 -5.976562 L 1.449219 -5.503906 L 1.527344 -5.050781 L 1.777344 -4.601562 L 1.949219 -4.175781 L 2.953125 -2.726562 L 3.851562 -1.851562 L 4.277344 -1.574219 L 4.652344 -1.277344 L 6.351562 -0.351562 L 6.851562 -0.175781 L 7.226562 -0.0742188 L 7.753906 0.101562 L 8.277344 0.148438 L 8.730469 0.25 Z M 9.203125 0.25 "/></g></g></g><g fill="#ffffff" fill-opacity="1"><g transform="translate(451.710065, 153.941895)"><g><path d="M 4.800781 -0.773438 L 5.003906 -0.25 L 5.527344 0 L 6.003906 -0.0507812 L 6.503906 0 L 6.976562 -0.0507812 L 8.527344 -0.0507812 L 9.027344 -0.25 L 9.230469 -0.75 L 9.203125 -1.226562 L 9.253906 -1.800781 L 9.230469 -2.800781 L 9.15625 -3.226562 L 9.230469 -3.75 L 9.28125 -5.277344 L 9.230469 -5.726562 L 9.304688 -6.777344 L 9.203125 -11.753906 L 9.28125 -12.253906 L 9.230469 -12.804688 L 9.429688 -13.257812 L 9.980469 -13.480469 L 10.40625 -13.507812 L 10.90625 -13.480469 L 11.355469 -13.53125 L 12.730469 -13.507812 L 13.304688 -13.730469 L 13.554688 -14.230469 L 13.507812 -14.757812 L 13.554688 -16.808594 L 13.304688 -17.308594 L 12.804688 -17.558594 L 12.207031 -17.507812 L 11.804688 -17.558594 L 11.332031 -17.558594 L 10.78125 -17.484375 L 10.28125 -17.484375 L 9.78125 -17.535156 L 9.28125 -17.535156 L 8.703125 -17.457031 L 1.25 -17.507812 L 0.699219 -17.257812 L 0.449219 -16.757812 L 0.425781 -14.257812 L 0.699219 -13.707031 L 1.199219 -13.457031 L 1.851562 -13.53125 L 4.078125 -13.507812 L 4.527344 -13.230469 L 4.777344 -12.757812 L 4.851562 -10.003906 L 4.777344 -9.230469 L 4.828125 -8.753906 L 4.777344 -8.253906 L 4.777344 -7.253906 L 4.851562 -6.527344 L 4.753906 -5.777344 L 4.777344 -5.277344 L 4.753906 -4.753906 L 4.828125 -3.226562 L 4.777344 -2.726562 Z M 4.800781 -0.773438 "/></g></g></g><g fill="#ffffff" fill-opacity="1"><g transform="translate(465.690986, 153.941895)"><g><path d="M 6.929688 -19.785156 L 7.453125 -19.710938 L 7.679688 -19.734375 L 8.328125 -19.785156 L 8.855469 -19.960938 L 9.105469 -20.183594 L 9.253906 -20.433594 L 10.878906 -22.261719 L 11.082031 -22.410156 L 11.253906 -22.886719 L 10.957031 -23.1875 L 9.78125 -23.585938 L 9.503906 -23.609375 L 7.753906 -24.261719 L 7.351562 -24.085938 L 6.351562 -21.835938 L 6.179688 -21.585938 L 6.101562 -21.285156 L 5.929688 -20.984375 L 5.851562 -20.683594 L 5.703125 -20.410156 L 5.550781 -19.910156 L 6.179688 -19.734375 L 6.476562 -19.734375 Z M 1.800781 -0.726562 L 2.125 -0.25 L 2.601562 0.0234375 L 8.253906 -0.0234375 L 8.703125 0.0507812 L 10.230469 -0.0234375 L 11.753906 0.0742188 L 12.230469 0.0234375 L 12.757812 -0.226562 L 12.980469 -0.699219 L 13.03125 -1.175781 L 13.007812 -2.726562 L 13.054688 -3.203125 L 12.730469 -3.703125 L 11.980469 -3.953125 L 8.679688 -4 L 8.203125 -3.925781 L 7.652344 -3.976562 L 7.101562 -3.925781 L 6.578125 -4.226562 L 6.351562 -5.003906 L 6.378906 -6.226562 L 6.601562 -6.753906 L 7.054688 -7.027344 L 8.027344 -7.027344 L 8.527344 -7.078125 L 9.855469 -7.003906 L 10.53125 -7.054688 L 11.054688 -7.003906 L 11.503906 -7.027344 L 12.003906 -7.304688 L 12.253906 -7.777344 L 12.304688 -9.753906 L 12.253906 -10.253906 L 12.03125 -10.730469 L 11.605469 -11.003906 L 10.605469 -11.03125 L 10.105469 -10.980469 L 9.578125 -10.980469 L 9.003906 -11.03125 L 7.027344 -11.003906 L 6.601562 -11.28125 L 6.304688 -11.730469 L 6.253906 -12.507812 L 6.503906 -13.230469 L 7.277344 -13.457031 L 12.082031 -13.480469 L 12.605469 -13.757812 L 12.882812 -14.207031 L 12.832031 -15.230469 L 12.757812 -15.707031 L 12.78125 -16.257812 L 12.855469 -16.734375 L 12.605469 -17.234375 L 12.082031 -17.457031 L 10.078125 -17.484375 L 9.628906 -17.433594 L 9.128906 -17.507812 L 8.027344 -17.457031 L 7.527344 -17.507812 L 6.554688 -17.484375 L 6.101562 -17.535156 L 2.828125 -17.457031 L 2.101562 -17.28125 L 1.851562 -16.734375 L 1.902344 -15.734375 L 1.800781 -15.007812 L 1.902344 -13.730469 L 1.851562 -13.207031 L 1.902344 -12.757812 L 1.902344 -8.277344 L 1.824219 -7.753906 L 1.902344 -6.777344 L 1.851562 -5.777344 L 1.925781 -5.253906 L 1.875 -4.703125 L 1.902344 -4.226562 L 1.824219 -3.777344 L 1.875 -3.203125 L 1.875 -2.703125 L 1.925781 -1.726562 L 1.902344 -1.226562 Z M 1.800781 -0.726562 "/></g></g></g><g fill="#ffffff" fill-opacity="1"><g transform="translate(480.022047, 153.941895)"><g><path d="M 1.925781 -0.800781 L 2.101562 -0.25 L 2.601562 0 L 3.078125 0.0234375 L 4.101562 -0.0507812 L 4.628906 0 L 5.378906 0 L 6.152344 -0.25 L 6.328125 -0.726562 L 6.378906 -1.25 L 6.277344 -1.777344 L 6.351562 -2.851562 L 6.304688 -4.402344 L 6.527344 -4.902344 L 7.027344 -5.152344 L 7.480469 -5.152344 L 7.929688 -5.175781 L 8.554688 -4.976562 L 8.953125 -4.550781 L 9.605469 -3.675781 L 9.78125 -3.203125 L 10.480469 -1.949219 L 10.804688 -1.476562 L 11.03125 -1.050781 L 11.332031 -0.648438 L 11.832031 -0.199219 L 12.457031 -0.0507812 L 13.355469 0 L 13.90625 -0.0507812 L 14.40625 0 L 15.40625 0 L 15.957031 -0.0507812 L 16.484375 -0.175781 L 16.582031 -0.699219 L 16.257812 -1.324219 L 15.457031 -2.550781 L 15.230469 -2.976562 L 14.933594 -3.425781 L 14.683594 -3.875 L 14.355469 -4.277344 L 13.605469 -5.578125 L 13.53125 -6.179688 L 13.804688 -6.703125 L 14.507812 -7.378906 L 14.808594 -7.804688 L 14.980469 -8.277344 L 15.257812 -8.730469 L 15.433594 -9.15625 L 15.707031 -10.105469 L 15.734375 -12.082031 L 15.605469 -12.554688 L 15.53125 -13.03125 L 15.40625 -13.53125 L 14.730469 -14.90625 L 14.382812 -15.28125 L 14.15625 -15.65625 L 12.90625 -16.609375 L 12.03125 -17.058594 L 9.953125 -17.484375 L 9.328125 -17.535156 L 8.605469 -17.507812 L 8.054688 -17.535156 L 7.554688 -17.484375 L 7.003906 -17.535156 L 6.578125 -17.484375 L 5.078125 -17.535156 L 4.601562 -17.457031 L 3.578125 -17.558594 L 3.101562 -17.484375 L 2.550781 -17.507812 L 2.074219 -17.28125 L 1.875 -16.757812 L 1.800781 -9.753906 L 1.875 -9.027344 L 1.875 -7.777344 L 1.824219 -7.253906 L 1.800781 -6.304688 L 1.875 -5.753906 L 1.800781 -4.726562 L 1.902344 -3.277344 L 1.851562 -2.75 Z M 7.027344 -9.203125 L 6.601562 -9.429688 L 6.351562 -9.953125 L 6.277344 -12.757812 L 6.578125 -13.257812 L 7.078125 -13.507812 L 7.480469 -13.53125 L 8.855469 -13.507812 L 10.003906 -13.355469 L 10.78125 -12.882812 L 11.03125 -12.507812 L 11.207031 -12.105469 L 11.253906 -11.378906 L 11.179688 -10.703125 L 10.980469 -10.203125 L 10.703125 -9.78125 L 10.40625 -9.480469 L 10.03125 -9.304688 L 8.078125 -9.128906 L 7.578125 -9.203125 Z M 7.027344 -9.203125 "/></g></g></g><g fill="#ffffff" fill-opacity="1"><g transform="translate(497.354375, 153.941895)"><g><path d="M 1.199219 -0.726562 L 1.449219 -0.199219 L 1.949219 -0.0234375 L 9.378906 0.0234375 L 9.855469 -0.226562 L 10.128906 -0.675781 L 10.128906 -1.226562 L 10.078125 -1.675781 L 10.15625 -3.203125 L 9.804688 -3.625 L 8.128906 -4.152344 L 7.855469 -4.652344 L 7.902344 -6.703125 L 7.804688 -7.703125 L 7.902344 -8.753906 L 7.855469 -9.503906 L 7.902344 -10.28125 L 7.855469 -10.753906 L 7.902344 -11.253906 L 7.855469 -11.78125 L 7.855469 -12.832031 L 8.128906 -13.28125 L 8.605469 -13.554688 L 9.15625 -13.582031 L 9.628906 -13.855469 L 9.90625 -14.332031 L 9.90625 -15.808594 L 9.953125 -16.257812 L 9.90625 -16.757812 L 9.703125 -17.257812 L 8.902344 -17.484375 L 5.726562 -17.507812 L 5.175781 -17.457031 L 3.652344 -17.484375 L 3.175781 -17.457031 L 2.199219 -17.507812 L 1.652344 -17.257812 L 1.375 -16.734375 L 1.375 -16.257812 L 1.324219 -15.832031 L 1.324219 -15.28125 L 1.375 -14.78125 L 1.375 -14.308594 L 1.625 -13.832031 L 3.152344 -13.304688 L 3.476562 -12.855469 L 3.402344 -10.730469 L 3.425781 -10.304688 L 3.5 -9.730469 L 3.476562 -8.703125 L 3.425781 -8.203125 L 3.527344 -7.226562 L 3.402344 -6.726562 L 3.5 -5.652344 L 3.453125 -4.675781 L 3.203125 -4.128906 L 1.550781 -3.601562 L 1.25 -3.125 L 1.199219 -2.652344 Z M 1.199219 -0.726562 "/></g></g></g><g fill="#ffffff" fill-opacity="1"><g transform="translate(508.709176, 153.941895)"><g><path d="M 0.324219 -0.675781 L 0.449219 -0.148438 L 0.949219 -0.0234375 L 3.152344 -0.0234375 L 3.800781 0.0507812 L 4.378906 -0.199219 L 4.828125 -0.648438 L 5.253906 -1.5 L 5.675781 -1.976562 L 6.277344 -2.226562 L 6.777344 -2.175781 L 8.179688 -2.199219 L 8.703125 -2.125 L 9.28125 -2.199219 L 9.730469 -2.199219 L 10.253906 -2.152344 L 11.429688 -2.199219 L 12.253906 -1.925781 L 12.78125 -1.527344 L 12.90625 -1.074219 L 13.179688 -0.625 L 13.605469 -0.226562 L 14.257812 0.0234375 L 14.707031 -0.0234375 L 15.582031 0.0507812 L 17.132812 0 L 17.582031 -0.148438 L 17.683594 -0.675781 L 17.535156 -1.300781 L 17.359375 -1.75 L 17.03125 -2.175781 L 16.882812 -2.675781 L 16.632812 -3.050781 L 16.484375 -3.527344 L 16.058594 -4.425781 L 15.882812 -4.902344 L 15.632812 -5.328125 L 15.28125 -6.253906 L 15.007812 -6.652344 L 14.808594 -7.152344 L 14.582031 -7.578125 L 14.40625 -8.078125 L 14.183594 -8.453125 L 14.03125 -8.953125 L 13.757812 -9.40625 L 13.554688 -9.828125 L 13.304688 -10.253906 L 13.179688 -10.730469 L 12.679688 -11.605469 L 12.53125 -12.082031 L 12.082031 -13.03125 L 11.957031 -13.429688 L 11.582031 -14.308594 L 11.082031 -15.230469 L 10.679688 -16.183594 L 10.453125 -16.558594 L 10.304688 -17.03125 L 9.855469 -17.507812 L 9.003906 -17.734375 L 8.203125 -17.484375 L 7.730469 -17.03125 L 7.578125 -16.582031 L 6.503906 -14.332031 L 6.226562 -13.882812 L 4.828125 -10.730469 L 4.703125 -10.304688 L 4.425781 -9.855469 L 4.027344 -8.953125 L 3.652344 -8.304688 L 3.476562 -7.828125 L 3.125 -7.179688 L 2.976562 -6.652344 L 2.75 -6.253906 L 2.578125 -5.753906 L 1.875 -4.453125 L 1.152344 -2.625 L 0.851562 -2.226562 L 0.625 -1.726562 Z M 8.054688 -6.179688 L 7.578125 -6.378906 L 7.503906 -6.878906 L 8.503906 -9.15625 L 8.730469 -9.554688 L 9.054688 -9.804688 L 9.355469 -9.605469 L 9.679688 -8.628906 L 9.953125 -8.203125 L 10.054688 -7.804688 L 10.304688 -7.304688 L 10.480469 -6.851562 L 10.429688 -6.402344 L 10.003906 -6.203125 Z M 8.054688 -6.179688 "/></g></g></g><g fill="#ffffff" fill-opacity="1"><g transform="translate(526.866863, 153.941895)"><g/></g></g><g fill="#ffffff" fill-opacity="1"><g transform="translate(533.644722, 153.941895)"><g><path d="M 7.054688 -0.449219 L 7.453125 0 L 8.054688 0.226562 L 8.554688 0.273438 L 9.230469 -0.0234375 L 9.65625 -0.425781 L 9.804688 -0.902344 L 10.230469 -1.875 L 10.453125 -2.351562 L 10.703125 -2.777344 L 11.105469 -3.675781 L 11.253906 -4.128906 L 12.757812 -7.328125 L 13.054688 -8.304688 L 13.582031 -9.203125 L 13.855469 -10.15625 L 14.132812 -10.65625 L 14.257812 -11.082031 L 14.382812 -11.554688 L 14.730469 -12.003906 L 14.855469 -12.480469 L 15.183594 -12.855469 L 15.558594 -13.832031 L 15.683594 -14.28125 L 15.957031 -14.707031 L 16.132812 -15.207031 L 16.382812 -15.683594 L 16.484375 -16.109375 L 16.734375 -16.707031 L 16.582031 -17.332031 L 16.15625 -17.484375 L 13.207031 -17.484375 L 12.632812 -17.28125 L 12.179688 -16.808594 L 12.054688 -16.359375 L 9.078125 -9.027344 L 8.828125 -8.554688 L 8.703125 -8.105469 L 8.402344 -7.652344 L 8.105469 -7.605469 L 7.902344 -8.054688 L 7.578125 -9.003906 L 7.378906 -9.453125 L 7.226562 -9.953125 L 7.054688 -10.355469 L 6.777344 -10.804688 L 6.476562 -11.804688 L 6.253906 -12.207031 L 6.078125 -12.65625 L 5.976562 -13.15625 L 5.101562 -14.957031 L 5.027344 -15.433594 L 4.777344 -15.90625 L 4.601562 -16.359375 L 4.378906 -16.757812 L 3.953125 -17.257812 L 3.375 -17.457031 L 1.976562 -17.535156 L 1.550781 -17.484375 L 1.101562 -17.535156 L 0.574219 -17.507812 L 0.0507812 -17.28125 L 0 -16.734375 L 0.101562 -16.132812 L 0.324219 -15.683594 L 0.699219 -14.730469 L 0.925781 -14.28125 L 1.074219 -13.832031 L 1.351562 -13.355469 L 1.75 -12.382812 L 2 -11.929688 L 2.75 -10.105469 L 3 -9.703125 L 4.652344 -5.976562 L 4.777344 -5.550781 L 5.203125 -4.652344 L 5.351562 -4.175781 L 6.003906 -2.726562 L 6.253906 -2.351562 L 6.378906 -1.824219 Z M 7.054688 -0.449219 "/></g></g></g><g fill="#ffffff" fill-opacity="1"><g transform="translate(550.501853, 153.941895)"><g><path d="M 9.355469 0.300781 L 10.753906 0.273438 L 12.253906 0.0742188 L 14.132812 -0.550781 L 14.957031 -1 L 15.332031 -1.300781 L 15.808594 -1.527344 L 16.507812 -2.125 L 16.832031 -2.578125 L 17.183594 -2.925781 L 18.285156 -4.601562 L 18.660156 -5.550781 L 18.859375 -6.503906 L 18.882812 -6.953125 L 19.007812 -7.453125 L 19.035156 -7.980469 L 19.132812 -8.703125 L 19.058594 -9.953125 L 18.882812 -10.980469 L 18.257812 -12.855469 L 17.785156 -13.78125 L 17.234375 -14.53125 L 16.53125 -15.308594 L 15.808594 -15.933594 L 15.230469 -16.332031 L 14.480469 -16.65625 L 14.105469 -16.933594 L 12.179688 -17.535156 L 10.730469 -17.785156 L 10.054688 -17.808594 L 7.402344 -17.433594 L 5.527344 -16.734375 L 5.152344 -16.457031 L 4.703125 -16.234375 L 3.851562 -15.605469 L 2.625 -14.183594 L 1.851562 -12.855469 L 1.476562 -11.90625 L 1.050781 -9.980469 L 0.976562 -7.953125 L 1.050781 -7.429688 L 1.175781 -6.976562 L 1.226562 -6.503906 L 1.449219 -5.550781 L 2.601562 -3.277344 L 2.902344 -2.976562 L 3.226562 -2.578125 L 3.601562 -2.226562 L 3.875 -1.902344 L 4.703125 -1.25 L 6.652344 -0.25 L 7.378906 0 L 7.929688 0.0507812 L 8.828125 0.25 Z M 10.753906 -4.128906 L 9.378906 -4.128906 L 8.828125 -4.203125 L 7.929688 -4.578125 L 7.527344 -4.800781 L 6.851562 -5.351562 L 6.527344 -5.703125 L 6.179688 -6.179688 L 6.054688 -6.578125 L 5.828125 -7.027344 L 5.628906 -7.953125 L 5.628906 -9.480469 L 5.753906 -9.929688 L 5.828125 -10.40625 L 6.027344 -10.855469 L 6.179688 -11.304688 L 6.777344 -12.105469 L 8.027344 -12.957031 L 8.355469 -13.082031 L 9.328125 -13.332031 L 10.03125 -13.382812 L 11.230469 -13.230469 L 11.679688 -13.132812 L 12.128906 -12.929688 L 12.90625 -12.382812 L 13.882812 -11.355469 L 14.183594 -10.40625 L 14.40625 -9.929688 L 14.480469 -9.480469 L 14.433594 -7.953125 L 14.230469 -7.027344 L 14.058594 -6.578125 L 13.78125 -6.128906 L 13.632812 -5.753906 L 13.28125 -5.351562 L 12.082031 -4.527344 L 11.628906 -4.402344 L 11.253906 -4.226562 Z M 10.753906 -4.128906 "/></g></g></g><g fill="#ffffff" fill-opacity="1"><g transform="translate(570.560349, 153.941895)"><g><path d="M 9.203125 0.25 L 10.703125 0.324219 L 13.132812 -0.175781 L 14.507812 -0.773438 L 14.882812 -1.027344 L 15.332031 -1.300781 L 15.757812 -1.601562 L 16.082031 -1.925781 L 16.359375 -2.351562 L 16.78125 -2.675781 L 17.535156 -3.976562 L 17.757812 -4.425781 L 17.882812 -4.902344 L 18.058594 -5.402344 L 18.132812 -5.878906 L 17.984375 -6.328125 L 17.359375 -6.601562 L 14.683594 -6.628906 L 14.132812 -6.378906 L 13.632812 -5.902344 L 13.429688 -5.476562 L 12.480469 -4.453125 L 11.628906 -4.027344 L 11.128906 -3.875 L 10.605469 -3.828125 L 9.203125 -3.851562 L 7.855469 -4.351562 L 7.378906 -4.578125 L 7.054688 -4.925781 L 6.128906 -6.128906 L 5.929688 -6.554688 L 5.628906 -7.527344 L 5.550781 -8.703125 L 5.578125 -9.503906 L 5.753906 -9.953125 L 5.777344 -10.453125 L 5.929688 -10.90625 L 6.351562 -11.804688 L 6.976562 -12.582031 L 7.804688 -13.179688 L 8.277344 -13.382812 L 9.15625 -13.632812 L 10.703125 -13.582031 L 11.65625 -13.40625 L 12.179688 -13.230469 L 12.90625 -12.632812 L 13.28125 -12.230469 L 13.507812 -11.804688 L 13.957031 -11.332031 L 14.507812 -11.105469 L 17.03125 -11.054688 L 17.535156 -11.105469 L 17.933594 -11.332031 L 18.082031 -11.855469 L 17.882812 -12.355469 L 17.808594 -12.804688 L 17.410156 -13.757812 L 16.484375 -15.03125 L 15.183594 -16.207031 L 14.632812 -16.582031 L 13.207031 -17.234375 L 12.230469 -17.507812 L 10.980469 -17.683594 L 8.703125 -17.683594 L 8.277344 -17.632812 L 7.804688 -17.484375 L 6.828125 -17.28125 L 6.351562 -17.109375 L 5.976562 -16.882812 L 5.527344 -16.707031 L 3.777344 -15.582031 L 3.476562 -15.183594 L 2.800781 -14.558594 L 2.5 -14.132812 L 1.351562 -11.878906 L 0.902344 -8.753906 L 1 -7.953125 L 1 -6.953125 L 1.25 -5.976562 L 1.449219 -5.503906 L 1.527344 -5.050781 L 1.777344 -4.601562 L 1.949219 -4.175781 L 2.953125 -2.726562 L 3.851562 -1.851562 L 4.277344 -1.574219 L 4.652344 -1.277344 L 6.351562 -0.351562 L 6.851562 -0.175781 L 7.226562 -0.0742188 L 7.753906 0.101562 L 8.277344 0.148438 L 8.730469 0.25 Z M 9.203125 0.25 "/></g></g></g><g fill="#ffffff" fill-opacity="1"><g transform="translate(589.643424, 153.941895)"><g><path d="M 10.128906 -19.507812 L 10.628906 -19.460938 L 11.230469 -19.410156 L 11.53125 -19.410156 L 11.832031 -19.660156 L 10.328125 -21.683594 L 10.078125 -21.808594 L 9.753906 -22.3125 L 9.355469 -22.710938 L 9.179688 -22.960938 L 8.953125 -23.160156 L 8.503906 -23.386719 L 8.203125 -23.386719 L 7.902344 -23.460938 L 7.554688 -23.410156 L 7.304688 -23.460938 L 6.703125 -23.460938 L 6.429688 -23.410156 L 5.929688 -23.1875 L 4.777344 -21.886719 L 4.628906 -21.609375 L 4.378906 -21.433594 L 3.050781 -19.632812 L 3.351562 -19.460938 L 3.976562 -19.460938 L 4.476562 -19.484375 L 4.753906 -19.433594 L 5.203125 -19.410156 L 5.503906 -19.484375 L 5.828125 -19.410156 L 6.628906 -19.683594 L 7.253906 -20.460938 L 7.628906 -20.410156 L 7.878906 -20.234375 L 8.027344 -19.933594 L 8.230469 -19.683594 L 8.730469 -19.484375 L 9.679688 -19.433594 Z M 1.800781 -0.726562 L 2.125 -0.25 L 2.601562 0.0234375 L 8.253906 -0.0234375 L 8.703125 0.0507812 L 10.230469 -0.0234375 L 11.753906 0.0742188 L 12.230469 0.0234375 L 12.757812 -0.226562 L 12.980469 -0.699219 L 13.03125 -1.175781 L 13.007812 -2.726562 L 13.054688 -3.203125 L 12.730469 -3.703125 L 11.980469 -3.953125 L 8.679688 -4 L 8.203125 -3.925781 L 7.652344 -3.976562 L 7.101562 -3.925781 L 6.578125 -4.226562 L 6.351562 -5.003906 L 6.378906 -6.226562 L 6.601562 -6.753906 L 7.054688 -7.027344 L 8.027344 -7.027344 L 8.527344 -7.078125 L 9.855469 -7.003906 L 10.53125 -7.054688 L 11.054688 -7.003906 L 11.503906 -7.027344 L 12.003906 -7.304688 L 12.253906 -7.777344 L 12.304688 -9.753906 L 12.253906 -10.253906 L 12.03125 -10.730469 L 11.605469 -11.003906 L 10.605469 -11.03125 L 10.105469 -10.980469 L 9.578125 -10.980469 L 9.003906 -11.03125 L 7.027344 -11.003906 L 6.601562 -11.28125 L 6.304688 -11.730469 L 6.253906 -12.507812 L 6.503906 -13.230469 L 7.277344 -13.457031 L 12.082031 -13.480469 L 12.605469 -13.757812 L 12.882812 -14.207031 L 12.832031 -15.230469 L 12.757812 -15.707031 L 12.78125 -16.257812 L 12.855469 -16.734375 L 12.605469 -17.234375 L 12.082031 -17.457031 L 10.078125 -17.484375 L 9.628906 -17.433594 L 9.128906 -17.507812 L 8.027344 -17.457031 L 7.527344 -17.507812 L 6.554688 -17.484375 L 6.101562 -17.535156 L 2.828125 -17.457031 L 2.101562 -17.28125 L 1.851562 -16.734375 L 1.902344 -15.734375 L 1.800781 -15.007812 L 1.902344 -13.730469 L 1.851562 -13.207031 L 1.902344 -12.757812 L 1.902344 -8.277344 L 1.824219 -7.753906 L 1.902344 -6.777344 L 1.851562 -5.777344 L 1.925781 -5.253906 L 1.875 -4.703125 L 1.902344 -4.226562 L 1.824219 -3.777344 L 1.875 -3.203125 L 1.875 -2.703125 L 1.925781 -1.726562 L 1.902344 -1.226562 Z M 1.800781 -0.726562 "/></g></g></g><g fill="#ffffff" fill-opacity="1"><g transform="translate(603.974485, 153.941895)"><g/></g></g><g fill="#ffffff" fill-opacity="1"><g transform="translate(610.752343, 153.941895)"><g><path d="M 7.253906 0.199219 L 7.980469 0.273438 L 8.777344 0.25 L 11.230469 -0.226562 L 12.53125 -0.925781 L 13.332031 -1.476562 L 14.03125 -2.277344 L 14.53125 -3.078125 L 14.730469 -3.527344 L 14.882812 -4.027344 L 14.957031 -4.476562 L 14.980469 -6.027344 L 14.90625 -6.527344 L 14.78125 -7.003906 L 14.28125 -7.929688 L 13.679688 -8.703125 L 13.257812 -9.054688 L 11.929688 -9.65625 L 9.878906 -10.15625 L 7.351562 -10.480469 L 6.304688 -10.855469 L 5.929688 -11.054688 L 5.527344 -11.457031 L 5.503906 -12.128906 L 5.578125 -12.78125 L 5.851562 -13.132812 L 6.277344 -13.457031 L 6.628906 -13.605469 L 7.078125 -13.707031 L 8.679688 -13.757812 L 9.230469 -13.554688 L 9.605469 -13.257812 L 10.429688 -12.382812 L 11.207031 -12.128906 L 12.855469 -12.082031 L 13.304688 -12.128906 L 13.78125 -12.082031 L 14.257812 -12.382812 L 14.480469 -12.855469 L 14.28125 -13.832031 L 13.882812 -14.730469 L 13.554688 -15.132812 L 13.304688 -15.53125 L 12.980469 -15.90625 L 11.378906 -17.007812 L 10.003906 -17.484375 L 9.480469 -17.582031 L 9.027344 -17.632812 L 8.480469 -17.757812 L 7.078125 -17.734375 L 5.101562 -17.332031 L 4.652344 -17.15625 L 4.253906 -16.90625 L 3.851562 -16.757812 L 3.351562 -16.457031 L 3 -16.132812 L 2.550781 -15.832031 L 2.277344 -15.40625 L 1.949219 -15.082031 L 1.777344 -14.632812 L 1.527344 -14.230469 L 1.175781 -12.78125 L 1.199219 -11.105469 L 1.375 -10.40625 L 1.699219 -9.53125 L 2.324219 -8.703125 L 3.027344 -8.054688 L 3.902344 -7.527344 L 5.328125 -7.054688 L 6.226562 -6.851562 L 8.277344 -6.703125 L 8.730469 -6.628906 L 9.230469 -6.601562 L 10.128906 -6.226562 L 10.480469 -5.929688 L 10.605469 -5.277344 L 10.453125 -4.628906 L 10.054688 -4.277344 L 9.65625 -4.050781 L 8.730469 -3.777344 L 8.027344 -3.75 L 7.277344 -3.800781 L 6.703125 -3.953125 L 6.328125 -4.128906 L 5.878906 -4.402344 L 5.503906 -4.753906 L 5.128906 -5.253906 L 4.628906 -5.453125 L 2.726562 -5.503906 L 2.226562 -5.453125 L 1.726562 -5.476562 L 1.226562 -5.253906 L 1.050781 -4.726562 L 1.101562 -4.175781 L 1.199219 -3.726562 L 1.601562 -2.726562 L 2.226562 -1.949219 L 2.953125 -1.226562 L 3.375 -0.949219 L 5.175781 -0.125 L 5.726562 -0.0507812 L 6.203125 0.125 Z M 7.253906 0.199219 "/></g></g></g><g fill="#ffffff" fill-opacity="1"><g transform="translate(626.709094, 153.941895)"><g><path d="M 1.800781 -0.726562 L 2.125 -0.25 L 2.601562 0.0234375 L 8.253906 -0.0234375 L 8.703125 0.0507812 L 10.230469 -0.0234375 L 11.753906 0.0742188 L 12.230469 0.0234375 L 12.757812 -0.226562 L 12.980469 -0.699219 L 13.03125 -1.175781 L 13.007812 -2.726562 L 13.054688 -3.203125 L 12.730469 -3.703125 L 11.980469 -3.953125 L 8.679688 -4 L 8.203125 -3.925781 L 7.652344 -3.976562 L 7.101562 -3.925781 L 6.578125 -4.226562 L 6.351562 -5.003906 L 6.378906 -6.226562 L 6.601562 -6.753906 L 7.054688 -7.027344 L 8.027344 -7.027344 L 8.527344 -7.078125 L 9.855469 -7.003906 L 10.53125 -7.054688 L 11.054688 -7.003906 L 11.503906 -7.027344 L 12.003906 -7.304688 L 12.253906 -7.777344 L 12.304688 -9.753906 L 12.253906 -10.253906 L 12.03125 -10.730469 L 11.605469 -11.003906 L 10.605469 -11.03125 L 10.105469 -10.980469 L 9.578125 -10.980469 L 9.003906 -11.03125 L 7.027344 -11.003906 L 6.601562 -11.28125 L 6.304688 -11.730469 L 6.253906 -12.507812 L 6.503906 -13.230469 L 7.277344 -13.457031 L 12.082031 -13.480469 L 12.605469 -13.757812 L 12.882812 -14.207031 L 12.832031 -15.230469 L 12.757812 -15.707031 L 12.78125 -16.257812 L 12.855469 -16.734375 L 12.605469 -17.234375 L 12.082031 -17.457031 L 10.078125 -17.484375 L 9.628906 -17.433594 L 9.128906 -17.507812 L 8.027344 -17.457031 L 7.527344 -17.507812 L 6.554688 -17.484375 L 6.101562 -17.535156 L 2.828125 -17.457031 L 2.101562 -17.28125 L 1.851562 -16.734375 L 1.902344 -15.734375 L 1.800781 -15.007812 L 1.902344 -13.730469 L 1.851562 -13.207031 L 1.902344 -12.757812 L 1.902344 -8.277344 L 1.824219 -7.753906 L 1.902344 -6.777344 L 1.851562 -5.777344 L 1.925781 -5.253906 L 1.875 -4.703125 L 1.902344 -4.226562 L 1.824219 -3.777344 L 1.875 -3.203125 L 1.875 -2.703125 L 1.925781 -1.726562 L 1.902344 -1.226562 Z M 1.800781 -0.726562 "/></g></g></g><g fill="#ffffff" fill-opacity="1"><g transform="translate(641.040155, 153.941895)"><g><path d="M 1.925781 -0.800781 L 2.101562 -0.25 L 2.601562 0 L 3.078125 0.0234375 L 4.101562 -0.0507812 L 4.628906 0 L 5.378906 0 L 6.152344 -0.25 L 6.328125 -0.726562 L 6.378906 -1.25 L 6.277344 -1.777344 L 6.351562 -2.851562 L 6.304688 -4.402344 L 6.527344 -4.902344 L 7.027344 -5.152344 L 7.480469 -5.152344 L 7.929688 -5.175781 L 8.554688 -4.976562 L 8.953125 -4.550781 L 9.605469 -3.675781 L 9.78125 -3.203125 L 10.480469 -1.949219 L 10.804688 -1.476562 L 11.03125 -1.050781 L 11.332031 -0.648438 L 11.832031 -0.199219 L 12.457031 -0.0507812 L 13.355469 0 L 13.90625 -0.0507812 L 14.40625 0 L 15.40625 0 L 15.957031 -0.0507812 L 16.484375 -0.175781 L 16.582031 -0.699219 L 16.257812 -1.324219 L 15.457031 -2.550781 L 15.230469 -2.976562 L 14.933594 -3.425781 L 14.683594 -3.875 L 14.355469 -4.277344 L 13.605469 -5.578125 L 13.53125 -6.179688 L 13.804688 -6.703125 L 14.507812 -7.378906 L 14.808594 -7.804688 L 14.980469 -8.277344 L 15.257812 -8.730469 L 15.433594 -9.15625 L 15.707031 -10.105469 L 15.734375 -12.082031 L 15.605469 -12.554688 L 15.53125 -13.03125 L 15.40625 -13.53125 L 14.730469 -14.90625 L 14.382812 -15.28125 L 14.15625 -15.65625 L 12.90625 -16.609375 L 12.03125 -17.058594 L 9.953125 -17.484375 L 9.328125 -17.535156 L 8.605469 -17.507812 L 8.054688 -17.535156 L 7.554688 -17.484375 L 7.003906 -17.535156 L 6.578125 -17.484375 L 5.078125 -17.535156 L 4.601562 -17.457031 L 3.578125 -17.558594 L 3.101562 -17.484375 L 2.550781 -17.507812 L 2.074219 -17.28125 L 1.875 -16.757812 L 1.800781 -9.753906 L 1.875 -9.027344 L 1.875 -7.777344 L 1.824219 -7.253906 L 1.800781 -6.304688 L 1.875 -5.753906 L 1.800781 -4.726562 L 1.902344 -3.277344 L 1.851562 -2.75 Z M 7.027344 -9.203125 L 6.601562 -9.429688 L 6.351562 -9.953125 L 6.277344 -12.757812 L 6.578125 -13.257812 L 7.078125 -13.507812 L 7.480469 -13.53125 L 8.855469 -13.507812 L 10.003906 -13.355469 L 10.78125 -12.882812 L 11.03125 -12.507812 L 11.207031 -12.105469 L 11.253906 -11.378906 L 11.179688 -10.703125 L 10.980469 -10.203125 L 10.703125 -9.78125 L 10.40625 -9.480469 L 10.03125 -9.304688 L 8.078125 -9.128906 L 7.578125 -9.203125 Z M 7.027344 -9.203125 "/></g></g></g><g fill="#ffffff" fill-opacity="1"><g transform="translate(658.372504, 153.941895)"><g><path d="M 1.199219 -0.726562 L 1.449219 -0.199219 L 1.949219 -0.0234375 L 9.378906 0.0234375 L 9.855469 -0.226562 L 10.128906 -0.675781 L 10.128906 -1.226562 L 10.078125 -1.675781 L 10.15625 -3.203125 L 9.804688 -3.625 L 8.128906 -4.152344 L 7.855469 -4.652344 L 7.902344 -6.703125 L 7.804688 -7.703125 L 7.902344 -8.753906 L 7.855469 -9.503906 L 7.902344 -10.28125 L 7.855469 -10.753906 L 7.902344 -11.253906 L 7.855469 -11.78125 L 7.855469 -12.832031 L 8.128906 -13.28125 L 8.605469 -13.554688 L 9.15625 -13.582031 L 9.628906 -13.855469 L 9.90625 -14.332031 L 9.90625 -15.808594 L 9.953125 -16.257812 L 9.90625 -16.757812 L 9.703125 -17.257812 L 8.902344 -17.484375 L 5.726562 -17.507812 L 5.175781 -17.457031 L 3.652344 -17.484375 L 3.175781 -17.457031 L 2.199219 -17.507812 L 1.652344 -17.257812 L 1.375 -16.734375 L 1.375 -16.257812 L 1.324219 -15.832031 L 1.324219 -15.28125 L 1.375 -14.78125 L 1.375 -14.308594 L 1.625 -13.832031 L 3.152344 -13.304688 L 3.476562 -12.855469 L 3.402344 -10.730469 L 3.425781 -10.304688 L 3.5 -9.730469 L 3.476562 -8.703125 L 3.425781 -8.203125 L 3.527344 -7.226562 L 3.402344 -6.726562 L 3.5 -5.652344 L 3.453125 -4.675781 L 3.203125 -4.128906 L 1.550781 -3.601562 L 1.25 -3.125 L 1.199219 -2.652344 Z M 1.199219 -0.726562 "/></g></g></g><g fill="#ffffff" fill-opacity="1"><g transform="translate(669.727305, 153.941895)"><g><path d="M 0.324219 -0.675781 L 0.449219 -0.148438 L 0.949219 -0.0234375 L 3.152344 -0.0234375 L 3.800781 0.0507812 L 4.378906 -0.199219 L 4.828125 -0.648438 L 5.253906 -1.5 L 5.675781 -1.976562 L 6.277344 -2.226562 L 6.777344 -2.175781 L 8.179688 -2.199219 L 8.703125 -2.125 L 9.28125 -2.199219 L 9.730469 -2.199219 L 10.253906 -2.152344 L 11.429688 -2.199219 L 12.253906 -1.925781 L 12.78125 -1.527344 L 12.90625 -1.074219 L 13.179688 -0.625 L 13.605469 -0.226562 L 14.257812 0.0234375 L 14.707031 -0.0234375 L 15.582031 0.0507812 L 17.132812 0 L 17.582031 -0.148438 L 17.683594 -0.675781 L 17.535156 -1.300781 L 17.359375 -1.75 L 17.03125 -2.175781 L 16.882812 -2.675781 L 16.632812 -3.050781 L 16.484375 -3.527344 L 16.058594 -4.425781 L 15.882812 -4.902344 L 15.632812 -5.328125 L 15.28125 -6.253906 L 15.007812 -6.652344 L 14.808594 -7.152344 L 14.582031 -7.578125 L 14.40625 -8.078125 L 14.183594 -8.453125 L 14.03125 -8.953125 L 13.757812 -9.40625 L 13.554688 -9.828125 L 13.304688 -10.253906 L 13.179688 -10.730469 L 12.679688 -11.605469 L 12.53125 -12.082031 L 12.082031 -13.03125 L 11.957031 -13.429688 L 11.582031 -14.308594 L 11.082031 -15.230469 L 10.679688 -16.183594 L 10.453125 -16.558594 L 10.304688 -17.03125 L 9.855469 -17.507812 L 9.003906 -17.734375 L 8.203125 -17.484375 L 7.730469 -17.03125 L 7.578125 -16.582031 L 6.503906 -14.332031 L 6.226562 -13.882812 L 4.828125 -10.730469 L 4.703125 -10.304688 L 4.425781 -9.855469 L 4.027344 -8.953125 L 3.652344 -8.304688 L 3.476562 -7.828125 L 3.125 -7.179688 L 2.976562 -6.652344 L 2.75 -6.253906 L 2.578125 -5.753906 L 1.875 -4.453125 L 1.152344 -2.625 L 0.851562 -2.226562 L 0.625 -1.726562 Z M 8.054688 -6.179688 L 7.578125 -6.378906 L 7.503906 -6.878906 L 8.503906 -9.15625 L 8.730469 -9.554688 L 9.054688 -9.804688 L 9.355469 -9.605469 L 9.679688 -8.628906 L 9.953125 -8.203125 L 10.054688 -7.804688 L 10.304688 -7.304688 L 10.480469 -6.851562 L 10.429688 -6.402344 L 10.003906 -6.203125 Z M 8.054688 -6.179688 "/></g></g></g><g fill="#ffffff" fill-opacity="1"><g transform="translate(687.884992, 153.941895)"><g><path d="M 4.800781 -6.304688 L 5.027344 -5.777344 L 5.453125 -5.550781 L 7.429688 -5.503906 L 7.953125 -5.578125 L 8.429688 -5.601562 L 8.929688 -5.804688 L 9.253906 -6.304688 L 9.679688 -7.226562 L 9.929688 -7.652344 L 10.28125 -7.980469 L 10.957031 -8.730469 L 11.253906 -9.179688 L 11.53125 -9.503906 L 12.355469 -10.832031 L 12.605469 -11.855469 L 12.582031 -13.304688 L 12.507812 -13.804688 L 12.207031 -14.808594 L 11.929688 -15.28125 L 11.332031 -16.058594 L 10.90625 -16.457031 L 10.503906 -16.707031 L 10.078125 -16.90625 L 9.628906 -17.15625 L 8.703125 -17.507812 L 8.152344 -17.558594 L 7.679688 -17.707031 L 6.902344 -17.785156 L 5.601562 -17.632812 L 5.152344 -17.484375 L 4.652344 -17.410156 L 4.152344 -17.15625 L 3.726562 -16.90625 L 3.277344 -16.734375 L 2.953125 -16.40625 L 2.578125 -16.082031 L 2.199219 -15.683594 L 1.375 -13.804688 L 1.324219 -13.304688 L 1.199219 -12.78125 L 1.402344 -12.304688 L 1.875 -12.054688 L 2.351562 -12.105469 L 3.050781 -12.054688 L 3.828125 -12.105469 L 4.253906 -12.03125 L 4.777344 -12.28125 L 5.328125 -13.179688 L 5.675781 -13.457031 L 6.054688 -13.679688 L 6.753906 -13.730469 L 7.554688 -13.632812 L 7.953125 -13.457031 L 8.253906 -13.007812 L 8.304688 -12.304688 L 8.304688 -11.582031 L 8.128906 -11.128906 L 5.550781 -8.105469 L 5.277344 -7.652344 L 5.050781 -7.179688 Z M 4.476562 -2.402344 L 4.503906 -1.5 L 4.578125 -1.226562 L 4.703125 -0.949219 L 4.851562 -0.75 L 5.128906 -0.523438 L 5.253906 -0.324219 L 5.828125 0 L 6.054688 0.0742188 L 6.378906 0.148438 L 7.253906 0.175781 L 7.527344 0.101562 L 7.777344 0.101562 L 8.054688 0 L 8.378906 -0.199219 L 8.578125 -0.300781 L 8.804688 -0.5 L 9.027344 -0.75 L 9.203125 -1 L 9.429688 -1.777344 L 9.453125 -2.351562 L 9.355469 -2.652344 L 9.304688 -2.925781 L 9.15625 -3.25 L 8.980469 -3.5 L 8.804688 -3.652344 L 8.628906 -3.902344 L 8.355469 -4.050781 L 8.128906 -4.203125 L 7.828125 -4.253906 L 7.503906 -4.378906 L 7.226562 -4.402344 L 6.652344 -4.378906 L 6.101562 -4.277344 L 5.777344 -4.175781 L 5.578125 -4.078125 L 5.078125 -3.652344 L 4.675781 -3.226562 L 4.601562 -2.976562 L 4.476562 -2.703125 Z M 4.476562 -2.402344 "/></g></g></g><g fill="#ffffff" fill-opacity="1"><g transform="translate(443.563427, 463.7645)"><g><path d="M 4.308594 0.0429688 L 4.726562 0.0429688 L 5.160156 -0.015625 L 5.441406 -0.015625 L 5.847656 -0.140625 L 6.421875 -0.238281 L 7.078125 -0.515625 L 8.015625 -1.148438 L 8.699219 -2.027344 L 8.839844 -2.308594 L 9.007812 -2.53125 L 9.230469 -3.078125 L 9.300781 -3.34375 L 9.359375 -3.636719 L 9.441406 -3.875 L 9.484375 -4.15625 L 9.484375 -4.449219 L 9.527344 -4.894531 L 9.511719 -5.300781 L 9.316406 -6.40625 L 9.132812 -6.9375 L 9.023438 -7.203125 L 8.546875 -7.945312 L 7.804688 -8.769531 L 7.09375 -9.246094 L 6.828125 -9.398438 L 6.546875 -9.457031 L 6.308594 -9.566406 L 6.015625 -9.636719 L 5.191406 -9.765625 L 2 -9.792969 L 1.75 -9.75 L 1.46875 -9.765625 L 1.160156 -9.636719 L 1.035156 -9.34375 L 1.019531 -1.523438 L 1.050781 -1.257812 L 1.050781 -0.546875 L 1.1875 -0.113281 L 1.46875 0.0273438 L 1.75 0 L 3.457031 0.0273438 L 3.734375 -0.015625 Z M 4.265625 -2.253906 L 4 -2.28125 L 3.679688 -2.433594 L 3.566406 -2.699219 L 3.554688 -2.9375 L 3.566406 -3.511719 L 3.511719 -4.195312 L 3.566406 -4.894531 L 3.539062 -6.828125 L 3.566406 -7.0625 L 3.707031 -7.386719 L 4.15625 -7.484375 L 4.742188 -7.496094 L 5.148438 -7.457031 L 5.691406 -7.300781 L 5.945312 -7.175781 L 6.15625 -7.023438 L 6.363281 -6.828125 L 6.574219 -6.574219 L 6.714844 -6.335938 L 6.839844 -6.085938 L 7.0625 -4.855469 L 6.925781 -3.875 L 6.6875 -3.355469 L 6.167969 -2.769531 L 5.691406 -2.460938 L 5.289062 -2.335938 L 4.6875 -2.265625 Z M 4.265625 -2.253906 "/></g></g></g><g fill="#ffffff" fill-opacity="1"><g transform="translate(453.730785, 463.7645)"><g><path d="M 1.007812 -0.40625 L 1.1875 -0.140625 L 1.453125 0.015625 L 4.617188 -0.015625 L 4.867188 0.0273438 L 5.722656 -0.015625 L 6.574219 0.0429688 L 6.839844 0.015625 L 7.132812 -0.125 L 7.261719 -0.390625 L 7.289062 -0.65625 L 7.273438 -1.523438 L 7.300781 -1.789062 L 7.121094 -2.070312 L 6.699219 -2.210938 L 4.855469 -2.238281 L 4.589844 -2.195312 L 4.28125 -2.222656 L 3.972656 -2.195312 L 3.679688 -2.363281 L 3.554688 -2.796875 L 3.566406 -3.484375 L 3.691406 -3.777344 L 3.945312 -3.929688 L 4.488281 -3.929688 L 4.769531 -3.957031 L 5.511719 -3.917969 L 5.890625 -3.945312 L 6.183594 -3.917969 L 6.433594 -3.929688 L 6.714844 -4.085938 L 6.855469 -4.351562 L 6.882812 -5.457031 L 6.855469 -5.734375 L 6.726562 -6 L 6.492188 -6.15625 L 5.929688 -6.167969 L 5.652344 -6.140625 L 5.359375 -6.140625 L 5.035156 -6.167969 L 3.929688 -6.15625 L 3.691406 -6.308594 L 3.523438 -6.558594 L 3.496094 -6.992188 L 3.636719 -7.398438 L 4.070312 -7.527344 L 6.757812 -7.539062 L 7.050781 -7.695312 L 7.203125 -7.945312 L 7.175781 -8.519531 L 7.132812 -8.785156 L 7.148438 -9.09375 L 7.191406 -9.359375 L 7.050781 -9.636719 L 6.757812 -9.765625 L 5.636719 -9.777344 L 5.386719 -9.75 L 5.105469 -9.792969 L 4.488281 -9.765625 L 4.210938 -9.792969 L 3.664062 -9.777344 L 3.414062 -9.804688 L 1.582031 -9.765625 L 1.175781 -9.664062 L 1.035156 -9.359375 L 1.0625 -8.796875 L 1.007812 -8.394531 L 1.0625 -7.679688 L 1.035156 -7.386719 L 1.0625 -7.132812 L 1.0625 -4.628906 L 1.019531 -4.335938 L 1.0625 -3.789062 L 1.035156 -3.230469 L 1.078125 -2.9375 L 1.050781 -2.628906 L 1.0625 -2.363281 L 1.019531 -2.113281 L 1.050781 -1.789062 L 1.050781 -1.511719 L 1.078125 -0.964844 L 1.0625 -0.683594 Z M 1.007812 -0.40625 "/></g></g></g><g fill="#ffffff" fill-opacity="1"><g transform="translate(461.744399, 463.7645)"><g><path d="M 4.054688 0.113281 L 4.460938 0.152344 L 4.910156 0.140625 L 6.28125 -0.125 L 7.007812 -0.515625 L 7.457031 -0.824219 L 7.847656 -1.273438 L 8.128906 -1.71875 L 8.238281 -1.972656 L 8.324219 -2.253906 L 8.363281 -2.503906 L 8.378906 -3.371094 L 8.335938 -3.652344 L 8.265625 -3.917969 L 7.988281 -4.433594 L 7.652344 -4.867188 L 7.414062 -5.0625 L 6.671875 -5.398438 L 5.523438 -5.679688 L 4.113281 -5.859375 L 3.523438 -6.070312 L 3.316406 -6.183594 L 3.089844 -6.40625 L 3.078125 -6.785156 L 3.121094 -7.148438 L 3.273438 -7.34375 L 3.511719 -7.527344 L 3.707031 -7.609375 L 3.957031 -7.664062 L 4.855469 -7.695312 L 5.160156 -7.582031 L 5.371094 -7.414062 L 5.832031 -6.925781 L 6.265625 -6.785156 L 7.191406 -6.757812 L 7.441406 -6.785156 L 7.707031 -6.757812 L 7.972656 -6.925781 L 8.097656 -7.191406 L 7.988281 -7.734375 L 7.761719 -8.238281 L 7.582031 -8.460938 L 7.441406 -8.6875 L 7.261719 -8.894531 L 6.363281 -9.511719 L 5.59375 -9.777344 L 5.300781 -9.832031 L 5.050781 -9.863281 L 4.742188 -9.929688 L 3.957031 -9.917969 L 2.855469 -9.695312 L 2.601562 -9.597656 L 2.378906 -9.457031 L 2.152344 -9.371094 L 1.875 -9.203125 L 1.679688 -9.023438 L 1.425781 -8.855469 L 1.273438 -8.617188 L 1.089844 -8.433594 L 0.992188 -8.183594 L 0.851562 -7.960938 L 0.65625 -7.148438 L 0.671875 -6.210938 L 0.769531 -5.820312 L 0.953125 -5.328125 L 1.300781 -4.867188 L 1.691406 -4.503906 L 2.183594 -4.210938 L 2.980469 -3.945312 L 3.484375 -3.832031 L 4.628906 -3.75 L 4.882812 -3.707031 L 5.160156 -3.691406 L 5.664062 -3.484375 L 5.859375 -3.316406 L 5.929688 -2.953125 L 5.847656 -2.585938 L 5.625 -2.390625 L 5.398438 -2.265625 L 4.882812 -2.113281 L 4.488281 -2.097656 L 4.070312 -2.125 L 3.75 -2.210938 L 3.539062 -2.308594 L 3.289062 -2.460938 L 3.078125 -2.65625 L 2.867188 -2.9375 L 2.585938 -3.050781 L 1.523438 -3.078125 L 1.246094 -3.050781 L 0.964844 -3.0625 L 0.683594 -2.9375 L 0.585938 -2.644531 L 0.617188 -2.335938 L 0.671875 -2.085938 L 0.894531 -1.523438 L 1.246094 -1.089844 L 1.652344 -0.683594 L 1.886719 -0.53125 L 2.894531 -0.0703125 L 3.203125 -0.0273438 L 3.46875 0.0703125 Z M 4.054688 0.113281 "/></g></g></g><g fill="#ffffff" fill-opacity="1"><g transform="translate(470.667065, 463.7645)"><g><path d="M 5.148438 0.140625 L 5.988281 0.183594 L 7.34375 -0.0976562 L 8.113281 -0.433594 L 8.324219 -0.574219 L 8.574219 -0.726562 L 8.8125 -0.894531 L 8.996094 -1.078125 L 9.148438 -1.316406 L 9.386719 -1.496094 L 9.804688 -2.222656 L 9.929688 -2.476562 L 10 -2.742188 L 10.097656 -3.019531 L 10.140625 -3.289062 L 10.058594 -3.539062 L 9.707031 -3.691406 L 8.210938 -3.707031 L 7.902344 -3.566406 L 7.625 -3.300781 L 7.511719 -3.0625 L 6.980469 -2.488281 L 6.503906 -2.253906 L 6.226562 -2.167969 L 5.929688 -2.140625 L 5.148438 -2.152344 L 4.390625 -2.433594 L 4.125 -2.558594 L 3.945312 -2.753906 L 3.425781 -3.425781 L 3.316406 -3.664062 L 3.148438 -4.210938 L 3.105469 -4.867188 L 3.121094 -5.316406 L 3.21875 -5.566406 L 3.230469 -5.847656 L 3.316406 -6.097656 L 3.554688 -6.601562 L 3.902344 -7.035156 L 4.363281 -7.371094 L 4.628906 -7.484375 L 5.121094 -7.625 L 5.988281 -7.59375 L 6.519531 -7.496094 L 6.8125 -7.398438 L 7.21875 -7.0625 L 7.425781 -6.839844 L 7.554688 -6.601562 L 7.804688 -6.335938 L 8.113281 -6.210938 L 9.527344 -6.183594 L 9.804688 -6.210938 L 10.03125 -6.335938 L 10.113281 -6.628906 L 10 -6.910156 L 9.960938 -7.160156 L 9.734375 -7.695312 L 9.21875 -8.40625 L 8.492188 -9.0625 L 8.183594 -9.273438 L 7.386719 -9.636719 L 6.839844 -9.792969 L 6.140625 -9.890625 L 4.867188 -9.890625 L 4.628906 -9.863281 L 4.363281 -9.777344 L 3.820312 -9.664062 L 3.554688 -9.566406 L 3.34375 -9.441406 L 3.089844 -9.34375 L 2.113281 -8.714844 L 1.945312 -8.492188 L 1.566406 -8.140625 L 1.398438 -7.902344 L 0.753906 -6.644531 L 0.503906 -4.894531 L 0.558594 -4.449219 L 0.558594 -3.890625 L 0.699219 -3.34375 L 0.8125 -3.078125 L 0.851562 -2.824219 L 0.992188 -2.574219 L 1.089844 -2.335938 L 1.652344 -1.523438 L 2.152344 -1.035156 L 2.390625 -0.882812 L 2.601562 -0.714844 L 3.554688 -0.195312 L 3.832031 -0.0976562 L 4.042969 -0.0429688 L 4.335938 0.0546875 L 4.628906 0.0820312 L 4.882812 0.140625 Z M 5.148438 0.140625 "/></g></g></g><g fill="#ffffff" fill-opacity="1"><g transform="translate(481.337901, 463.7645)"><g><path d="M 4.125 0.113281 L 4.796875 0.167969 L 5.496094 0.140625 L 6.058594 0.015625 L 6.351562 -0.0976562 L 6.628906 -0.167969 L 6.855469 -0.308594 L 7.105469 -0.417969 L 7.328125 -0.574219 L 7.960938 -1.132812 L 8.113281 -1.386719 L 8.296875 -1.59375 L 8.378906 -1.875 L 8.519531 -2.113281 L 8.617188 -2.378906 L 8.714844 -3.789062 L 8.671875 -4.925781 L 8.730469 -5.21875 L 8.730469 -5.46875 L 8.671875 -5.75 L 8.660156 -6.015625 L 8.6875 -6.308594 L 8.671875 -6.699219 L 8.699219 -7.132812 L 8.6875 -7.441406 L 8.730469 -7.707031 L 8.6875 -7.988281 L 8.699219 -9.121094 L 8.660156 -9.359375 L 8.546875 -9.664062 L 8.097656 -9.792969 L 6.785156 -9.804688 L 6.476562 -9.679688 L 6.335938 -9.371094 L 6.351562 -8 L 6.324219 -7.722656 L 6.335938 -7.175781 L 6.308594 -6.882812 L 6.351562 -6.589844 L 6.308594 -5.484375 L 6.363281 -5.230469 L 6.335938 -4.925781 L 6.351562 -4.421875 L 6.324219 -4.140625 L 6.335938 -3.425781 L 6.28125 -2.980469 L 6.15625 -2.714844 L 6.027344 -2.519531 L 5.804688 -2.308594 L 5.246094 -2.125 L 4.867188 -2.097656 L 4.40625 -2.125 L 4.15625 -2.195312 L 3.847656 -2.351562 L 3.636719 -2.53125 L 3.46875 -2.726562 L 3.386719 -3.019531 L 3.355469 -5.484375 L 3.316406 -5.761719 L 3.300781 -6.628906 L 3.328125 -6.882812 L 3.328125 -8 L 3.289062 -8.40625 L 3.289062 -8.671875 L 3.355469 -9.09375 L 3.355469 -9.386719 L 3.203125 -9.652344 L 2.867188 -9.777344 L 1.398438 -9.792969 L 1.117188 -9.636719 L 0.992188 -9.359375 L 0.992188 -8.519531 L 0.921875 -8.28125 L 0.980469 -7.695312 L 0.9375 -7.160156 L 1.007812 -6.324219 L 0.953125 -6.058594 L 0.992188 -5.75 L 0.964844 -5.484375 L 0.980469 -5.203125 L 0.953125 -4.9375 L 0.992188 -4.378906 L 0.980469 -3.371094 L 1.019531 -2.964844 L 1.019531 -2.671875 L 1.105469 -2.390625 L 1.148438 -2.125 L 1.230469 -1.859375 L 1.511719 -1.386719 L 1.886719 -0.921875 L 2.070312 -0.742188 L 2.546875 -0.460938 L 2.753906 -0.292969 L 3.019531 -0.183594 L 3.34375 -0.0820312 L 3.554688 0.0273438 L 3.859375 0.0429688 Z M 4.125 0.113281 "/></g></g></g><g fill="#ffffff" fill-opacity="1"><g transform="translate(490.987804, 463.7645)"><g><path d="M 1.019531 -0.417969 L 1.175781 -0.0976562 L 1.441406 0.0273438 L 6.070312 -0.0273438 L 6.601562 -0.0976562 L 7.0625 -0.28125 L 7.59375 -0.585938 L 7.777344 -0.726562 L 8 -0.9375 L 8.324219 -1.398438 L 8.449219 -1.664062 L 8.503906 -1.902344 L 8.617188 -2.183594 L 8.628906 -3.300781 L 8.574219 -3.566406 L 8.476562 -3.859375 L 8.226562 -4.351562 L 8.027344 -4.589844 L 7.820312 -4.796875 L 7.695312 -5.105469 L 7.75 -5.386719 L 7.902344 -5.664062 L 8.070312 -5.902344 L 8.265625 -6.910156 L 8.253906 -7.316406 L 8.097656 -7.832031 L 7.960938 -8.097656 L 7.875 -8.363281 L 7.539062 -8.8125 L 7.34375 -9.007812 L 6.925781 -9.300781 L 6.40625 -9.582031 L 5.625 -9.765625 L 1.414062 -9.792969 L 1.132812 -9.664062 L 1.007812 -9.371094 L 1.035156 -8.769531 L 1.007812 -8.363281 L 1.0625 -7.425781 L 1.019531 -7.132812 L 1.050781 -6.839844 L 1.019531 -6.574219 L 1.035156 -6.28125 L 1.007812 -6.015625 L 1.007812 -4.894531 L 1.050781 -4.601562 L 1.019531 -4.335938 L 1.019531 -3.777344 L 1.050781 -3.511719 L 1.019531 -2.363281 L 1.0625 -1.789062 L 1.007812 -0.953125 Z M 3.890625 -6 L 3.554688 -6.113281 L 3.414062 -6.394531 L 3.46875 -6.628906 L 3.46875 -6.894531 L 3.441406 -7.160156 L 3.59375 -7.398438 L 3.890625 -7.554688 L 4.894531 -7.511719 L 5.328125 -7.425781 L 5.496094 -7.316406 L 5.679688 -7.121094 L 5.722656 -6.742188 L 5.652344 -6.324219 L 5.414062 -6.097656 L 4.9375 -6 Z M 3.847656 -2.222656 L 3.609375 -2.335938 L 3.457031 -2.628906 L 3.46875 -2.867188 L 3.441406 -3.132812 L 3.457031 -3.414062 L 3.554688 -3.664062 L 3.832031 -3.804688 L 5.316406 -3.804688 L 5.707031 -3.734375 L 5.917969 -3.582031 L 6.125 -3.386719 L 6.15625 -2.992188 L 6.125 -2.628906 L 5.945312 -2.433594 L 5.691406 -2.28125 L 4.9375 -2.210938 Z M 3.847656 -2.222656 "/></g></g></g><g fill="#ffffff" fill-opacity="1"><g transform="translate(500.218144, 463.7645)"><g><path d="M 1.078125 -0.449219 L 1.175781 -0.140625 L 1.453125 0 L 1.71875 0.015625 L 2.292969 -0.0273438 L 2.585938 0 L 3.007812 0 L 3.441406 -0.140625 L 3.539062 -0.40625 L 3.566406 -0.699219 L 3.511719 -0.992188 L 3.554688 -1.59375 L 3.523438 -2.460938 L 3.652344 -2.742188 L 3.929688 -2.882812 L 4.183594 -2.882812 L 4.433594 -2.894531 L 4.785156 -2.785156 L 5.007812 -2.546875 L 5.371094 -2.054688 L 5.46875 -1.789062 L 5.859375 -1.089844 L 6.042969 -0.824219 L 6.167969 -0.585938 L 6.335938 -0.363281 L 6.617188 -0.113281 L 6.964844 -0.0273438 L 7.46875 0 L 7.777344 -0.0273438 L 8.058594 0 L 8.617188 0 L 8.925781 -0.0273438 L 9.21875 -0.0976562 L 9.273438 -0.390625 L 9.09375 -0.742188 L 8.644531 -1.425781 L 8.519531 -1.664062 L 8.351562 -1.917969 L 8.210938 -2.167969 L 8.027344 -2.390625 L 7.609375 -3.121094 L 7.566406 -3.457031 L 7.722656 -3.75 L 8.113281 -4.125 L 8.28125 -4.363281 L 8.378906 -4.628906 L 8.53125 -4.882812 L 8.628906 -5.121094 L 8.785156 -5.652344 L 8.796875 -6.757812 L 8.730469 -7.023438 L 8.6875 -7.289062 L 8.617188 -7.566406 L 8.238281 -8.335938 L 8.042969 -8.546875 L 7.917969 -8.757812 L 7.21875 -9.289062 L 6.726562 -9.539062 L 5.566406 -9.777344 L 5.21875 -9.804688 L 4.8125 -9.792969 L 4.503906 -9.804688 L 4.222656 -9.777344 L 3.917969 -9.804688 L 3.679688 -9.777344 L 2.839844 -9.804688 L 2.574219 -9.765625 L 2 -9.820312 L 1.734375 -9.777344 L 1.425781 -9.792969 L 1.160156 -9.664062 L 1.050781 -9.371094 L 1.007812 -5.457031 L 1.050781 -5.050781 L 1.050781 -4.351562 L 1.019531 -4.054688 L 1.007812 -3.523438 L 1.050781 -3.21875 L 1.007812 -2.644531 L 1.0625 -1.832031 L 1.035156 -1.539062 Z M 3.929688 -5.148438 L 3.691406 -5.273438 L 3.554688 -5.566406 L 3.511719 -7.132812 L 3.679688 -7.414062 L 3.957031 -7.554688 L 4.183594 -7.566406 L 4.953125 -7.554688 L 5.59375 -7.46875 L 6.027344 -7.203125 L 6.167969 -6.992188 L 6.265625 -6.769531 L 6.292969 -6.363281 L 6.253906 -5.988281 L 6.140625 -5.707031 L 5.988281 -5.46875 L 5.820312 -5.300781 L 5.609375 -5.203125 L 4.519531 -5.105469 L 4.238281 -5.148438 Z M 3.929688 -5.148438 "/></g></g></g><g fill="#ffffff" fill-opacity="1"><g transform="translate(509.910003, 463.7645)"><g><path d="M 0.183594 -0.378906 L 0.25 -0.0820312 L 0.53125 -0.015625 L 1.761719 -0.015625 L 2.125 0.0273438 L 2.449219 -0.113281 L 2.699219 -0.363281 L 2.9375 -0.839844 L 3.175781 -1.105469 L 3.511719 -1.246094 L 3.789062 -1.21875 L 4.574219 -1.230469 L 4.867188 -1.1875 L 5.191406 -1.230469 L 5.441406 -1.230469 L 5.734375 -1.203125 L 6.394531 -1.230469 L 6.855469 -1.078125 L 7.148438 -0.851562 L 7.21875 -0.601562 L 7.371094 -0.351562 L 7.609375 -0.125 L 7.972656 0.015625 L 8.226562 -0.015625 L 8.714844 0.0273438 L 9.582031 0 L 9.832031 -0.0820312 L 9.890625 -0.378906 L 9.804688 -0.726562 L 9.707031 -0.980469 L 9.527344 -1.21875 L 9.441406 -1.496094 L 9.300781 -1.707031 L 9.21875 -1.972656 L 8.980469 -2.476562 L 8.882812 -2.742188 L 8.742188 -2.980469 L 8.546875 -3.496094 L 8.394531 -3.722656 L 8.28125 -4 L 8.15625 -4.238281 L 8.058594 -4.519531 L 7.929688 -4.726562 L 7.847656 -5.007812 L 7.695312 -5.257812 L 7.582031 -5.496094 L 7.441406 -5.734375 L 7.371094 -6 L 7.09375 -6.492188 L 7.007812 -6.757812 L 6.757812 -7.289062 L 6.6875 -7.511719 L 6.476562 -8 L 6.195312 -8.519531 L 5.972656 -9.050781 L 5.847656 -9.261719 L 5.761719 -9.527344 L 5.511719 -9.792969 L 5.035156 -9.917969 L 4.589844 -9.777344 L 4.324219 -9.527344 L 4.238281 -9.273438 L 3.636719 -8.015625 L 3.484375 -7.761719 L 2.699219 -6 L 2.628906 -5.761719 L 2.476562 -5.511719 L 2.253906 -5.007812 L 2.042969 -4.644531 L 1.945312 -4.378906 L 1.75 -4.015625 L 1.664062 -3.722656 L 1.539062 -3.496094 L 1.441406 -3.21875 L 1.050781 -2.488281 L 0.644531 -1.46875 L 0.476562 -1.246094 L 0.351562 -0.964844 Z M 4.503906 -3.457031 L 4.238281 -3.566406 L 4.195312 -3.847656 L 4.757812 -5.121094 L 4.882812 -5.34375 L 5.0625 -5.484375 L 5.230469 -5.371094 L 5.414062 -4.824219 L 5.566406 -4.589844 L 5.625 -4.363281 L 5.761719 -4.085938 L 5.859375 -3.832031 L 5.832031 -3.582031 L 5.59375 -3.46875 Z M 4.503906 -3.457031 "/></g></g></g><g fill="#ffffff" fill-opacity="1"><g transform="translate(520.063373, 463.7645)"><g/></g></g><g fill="#ffffff" fill-opacity="1"><g transform="translate(523.853409, 463.7645)"><g><path d="M 0.183594 -0.378906 L 0.25 -0.0820312 L 0.53125 -0.015625 L 1.761719 -0.015625 L 2.125 0.0273438 L 2.449219 -0.113281 L 2.699219 -0.363281 L 2.9375 -0.839844 L 3.175781 -1.105469 L 3.511719 -1.246094 L 3.789062 -1.21875 L 4.574219 -1.230469 L 4.867188 -1.1875 L 5.191406 -1.230469 L 5.441406 -1.230469 L 5.734375 -1.203125 L 6.394531 -1.230469 L 6.855469 -1.078125 L 7.148438 -0.851562 L 7.21875 -0.601562 L 7.371094 -0.351562 L 7.609375 -0.125 L 7.972656 0.015625 L 8.226562 -0.015625 L 8.714844 0.0273438 L 9.582031 0 L 9.832031 -0.0820312 L 9.890625 -0.378906 L 9.804688 -0.726562 L 9.707031 -0.980469 L 9.527344 -1.21875 L 9.441406 -1.496094 L 9.300781 -1.707031 L 9.21875 -1.972656 L 8.980469 -2.476562 L 8.882812 -2.742188 L 8.742188 -2.980469 L 8.546875 -3.496094 L 8.394531 -3.722656 L 8.28125 -4 L 8.15625 -4.238281 L 8.058594 -4.519531 L 7.929688 -4.726562 L 7.847656 -5.007812 L 7.695312 -5.257812 L 7.582031 -5.496094 L 7.441406 -5.734375 L 7.371094 -6 L 7.09375 -6.492188 L 7.007812 -6.757812 L 6.757812 -7.289062 L 6.6875 -7.511719 L 6.476562 -8 L 6.195312 -8.519531 L 5.972656 -9.050781 L 5.847656 -9.261719 L 5.761719 -9.527344 L 5.511719 -9.792969 L 5.035156 -9.917969 L 4.589844 -9.777344 L 4.324219 -9.527344 L 4.238281 -9.273438 L 3.636719 -8.015625 L 3.484375 -7.761719 L 2.699219 -6 L 2.628906 -5.761719 L 2.476562 -5.511719 L 2.253906 -5.007812 L 2.042969 -4.644531 L 1.945312 -4.378906 L 1.75 -4.015625 L 1.664062 -3.722656 L 1.539062 -3.496094 L 1.441406 -3.21875 L 1.050781 -2.488281 L 0.644531 -1.46875 L 0.476562 -1.246094 L 0.351562 -0.964844 Z M 4.503906 -3.457031 L 4.238281 -3.566406 L 4.195312 -3.847656 L 4.757812 -5.121094 L 4.882812 -5.34375 L 5.0625 -5.484375 L 5.230469 -5.371094 L 5.414062 -4.824219 L 5.566406 -4.589844 L 5.625 -4.363281 L 5.761719 -4.085938 L 5.859375 -3.832031 L 5.832031 -3.582031 L 5.59375 -3.46875 Z M 4.503906 -3.457031 "/></g></g></g><g fill="#ffffff" fill-opacity="1"><g transform="translate(534.006778, 463.7645)"><g><path d="M 5.121094 0.167969 L 5.484375 0.183594 L 6.238281 0.113281 L 6.519531 0.0546875 L 6.785156 0.0429688 L 7.023438 -0.0273438 L 8.058594 -0.476562 L 8.253906 -0.644531 L 8.714844 -0.9375 L 9.121094 -1.371094 L 9.566406 -2.027344 L 9.890625 -2.671875 L 10.070312 -3.273438 L 10.085938 -3.539062 L 10.167969 -3.820312 L 10.226562 -4.882812 L 10.183594 -5.160156 L 10.015625 -5.441406 L 9.609375 -5.566406 L 6.097656 -5.566406 L 5.664062 -5.414062 L 5.539062 -5.148438 L 5.511719 -4.097656 L 5.566406 -3.832031 L 5.652344 -3.59375 L 5.917969 -3.46875 L 6.183594 -3.46875 L 6.433594 -3.441406 L 7.273438 -3.484375 L 7.46875 -3.328125 L 7.527344 -3.089844 L 7.414062 -2.867188 L 7.007812 -2.476562 L 6.785156 -2.363281 L 6.253906 -2.195312 L 5.972656 -2.152344 L 5.566406 -2.140625 L 5.132812 -2.167969 L 4.882812 -2.222656 L 4.628906 -2.320312 L 4.125 -2.585938 L 3.707031 -2.921875 L 3.554688 -3.160156 L 3.441406 -3.398438 L 3.289062 -3.652344 L 3.1875 -3.917969 L 3.105469 -5.316406 L 3.257812 -5.820312 L 3.316406 -6.097656 L 3.523438 -6.617188 L 3.890625 -7.007812 L 4.351562 -7.328125 L 4.589844 -7.441406 L 5.132812 -7.625 L 5.523438 -7.636719 L 6.253906 -7.554688 L 6.519531 -7.484375 L 7.21875 -7.050781 L 7.359375 -6.828125 L 7.664062 -6.601562 L 7.972656 -6.460938 L 9.34375 -6.460938 L 9.609375 -6.492188 L 9.847656 -6.574219 L 9.945312 -6.882812 L 9.496094 -7.917969 L 9.300781 -8.113281 L 8.953125 -8.5625 L 8.546875 -8.964844 L 7.59375 -9.554688 L 7.289062 -9.636719 L 7.0625 -9.734375 L 6.785156 -9.777344 L 6.476562 -9.863281 L 5.089844 -9.929688 L 4.238281 -9.792969 L 3.175781 -9.414062 L 2.921875 -9.289062 L 2.222656 -8.8125 L 1.804688 -8.421875 L 1.621094 -8.183594 L 1.484375 -7.960938 L 1.273438 -7.761719 L 1.117188 -7.496094 L 0.683594 -6.433594 L 0.671875 -6.183594 L 0.515625 -5.566406 L 0.546875 -4.867188 L 0.515625 -4.476562 L 0.53125 -4.183594 L 0.769531 -3.105469 L 1.0625 -2.335938 L 1.21875 -2.070312 L 1.71875 -1.441406 L 2.113281 -1.035156 L 3.007812 -0.433594 L 3.257812 -0.308594 L 4.042969 -0.0273438 L 4.824219 0.140625 Z M 5.121094 0.167969 "/></g></g></g><g fill="#ffffff" fill-opacity="1"><g transform="translate(544.719571, 463.7645)"><g><path d="M 5.230469 0.167969 L 6.015625 0.152344 L 6.855469 0.0429688 L 7.902344 -0.308594 L 8.363281 -0.558594 L 8.574219 -0.726562 L 8.839844 -0.851562 L 9.230469 -1.1875 L 9.414062 -1.441406 L 9.609375 -1.636719 L 10.226562 -2.574219 L 10.433594 -3.105469 L 10.546875 -3.636719 L 10.5625 -3.890625 L 10.632812 -4.167969 L 10.644531 -4.460938 L 10.699219 -4.867188 L 10.660156 -5.566406 L 10.5625 -6.140625 L 10.210938 -7.191406 L 9.945312 -7.707031 L 9.636719 -8.128906 L 9.246094 -8.5625 L 8.839844 -8.910156 L 8.519531 -9.132812 L 8.097656 -9.316406 L 7.890625 -9.46875 L 6.8125 -9.804688 L 6 -9.945312 L 5.625 -9.960938 L 4.140625 -9.75 L 3.089844 -9.359375 L 2.882812 -9.203125 L 2.628906 -9.078125 L 2.152344 -8.730469 L 1.46875 -7.929688 L 1.035156 -7.191406 L 0.824219 -6.660156 L 0.585938 -5.582031 L 0.546875 -4.449219 L 0.585938 -4.15625 L 0.65625 -3.902344 L 0.683594 -3.636719 L 0.8125 -3.105469 L 1.453125 -1.832031 L 1.621094 -1.664062 L 1.804688 -1.441406 L 2.015625 -1.246094 L 2.167969 -1.0625 L 2.628906 -0.699219 L 3.722656 -0.140625 L 4.125 0 L 4.433594 0.0273438 L 4.9375 0.140625 Z M 6.015625 -2.308594 L 5.246094 -2.308594 L 4.9375 -2.351562 L 4.433594 -2.558594 L 4.210938 -2.6875 L 3.832031 -2.992188 L 3.652344 -3.1875 L 3.457031 -3.457031 L 3.386719 -3.679688 L 3.257812 -3.929688 L 3.148438 -4.449219 L 3.148438 -5.300781 L 3.21875 -5.554688 L 3.257812 -5.820312 L 3.371094 -6.070312 L 3.457031 -6.324219 L 3.789062 -6.769531 L 4.488281 -7.246094 L 4.671875 -7.316406 L 5.21875 -7.457031 L 5.609375 -7.484375 L 6.28125 -7.398438 L 6.53125 -7.34375 L 6.785156 -7.230469 L 7.21875 -6.925781 L 7.761719 -6.351562 L 7.929688 -5.820312 L 8.058594 -5.554688 L 8.097656 -5.300781 L 8.070312 -4.449219 L 7.960938 -3.929688 L 7.863281 -3.679688 L 7.707031 -3.425781 L 7.625 -3.21875 L 7.425781 -2.992188 L 6.757812 -2.53125 L 6.503906 -2.460938 L 6.292969 -2.363281 Z M 6.015625 -2.308594 "/></g></g></g><g fill="#ffffff" fill-opacity="1"><g transform="translate(555.935829, 463.7645)"><g><path d="M 1.078125 -0.449219 L 1.175781 -0.140625 L 1.453125 0 L 1.71875 0.015625 L 2.292969 -0.0273438 L 2.585938 0 L 3.007812 0 L 3.441406 -0.140625 L 3.539062 -0.40625 L 3.566406 -0.699219 L 3.511719 -0.992188 L 3.554688 -1.59375 L 3.523438 -2.460938 L 3.652344 -2.742188 L 3.929688 -2.882812 L 4.183594 -2.882812 L 4.433594 -2.894531 L 4.785156 -2.785156 L 5.007812 -2.546875 L 5.371094 -2.054688 L 5.46875 -1.789062 L 5.859375 -1.089844 L 6.042969 -0.824219 L 6.167969 -0.585938 L 6.335938 -0.363281 L 6.617188 -0.113281 L 6.964844 -0.0273438 L 7.46875 0 L 7.777344 -0.0273438 L 8.058594 0 L 8.617188 0 L 8.925781 -0.0273438 L 9.21875 -0.0976562 L 9.273438 -0.390625 L 9.09375 -0.742188 L 8.644531 -1.425781 L 8.519531 -1.664062 L 8.351562 -1.917969 L 8.210938 -2.167969 L 8.027344 -2.390625 L 7.609375 -3.121094 L 7.566406 -3.457031 L 7.722656 -3.75 L 8.113281 -4.125 L 8.28125 -4.363281 L 8.378906 -4.628906 L 8.53125 -4.882812 L 8.628906 -5.121094 L 8.785156 -5.652344 L 8.796875 -6.757812 L 8.730469 -7.023438 L 8.6875 -7.289062 L 8.617188 -7.566406 L 8.238281 -8.335938 L 8.042969 -8.546875 L 7.917969 -8.757812 L 7.21875 -9.289062 L 6.726562 -9.539062 L 5.566406 -9.777344 L 5.21875 -9.804688 L 4.8125 -9.792969 L 4.503906 -9.804688 L 4.222656 -9.777344 L 3.917969 -9.804688 L 3.679688 -9.777344 L 2.839844 -9.804688 L 2.574219 -9.765625 L 2 -9.820312 L 1.734375 -9.777344 L 1.425781 -9.792969 L 1.160156 -9.664062 L 1.050781 -9.371094 L 1.007812 -5.457031 L 1.050781 -5.050781 L 1.050781 -4.351562 L 1.019531 -4.054688 L 1.007812 -3.523438 L 1.050781 -3.21875 L 1.007812 -2.644531 L 1.0625 -1.832031 L 1.035156 -1.539062 Z M 3.929688 -5.148438 L 3.691406 -5.273438 L 3.554688 -5.566406 L 3.511719 -7.132812 L 3.679688 -7.414062 L 3.957031 -7.554688 L 4.183594 -7.566406 L 4.953125 -7.554688 L 5.59375 -7.46875 L 6.027344 -7.203125 L 6.167969 -6.992188 L 6.265625 -6.769531 L 6.292969 -6.363281 L 6.253906 -5.988281 L 6.140625 -5.707031 L 5.988281 -5.46875 L 5.820312 -5.300781 L 5.609375 -5.203125 L 4.519531 -5.105469 L 4.238281 -5.148438 Z M 3.929688 -5.148438 "/></g></g></g><g fill="#ffffff" fill-opacity="1"><g transform="translate(565.627689, 463.7645)"><g><path d="M 0.183594 -0.378906 L 0.25 -0.0820312 L 0.53125 -0.015625 L 1.761719 -0.015625 L 2.125 0.0273438 L 2.449219 -0.113281 L 2.699219 -0.363281 L 2.9375 -0.839844 L 3.175781 -1.105469 L 3.511719 -1.246094 L 3.789062 -1.21875 L 4.574219 -1.230469 L 4.867188 -1.1875 L 5.191406 -1.230469 L 5.441406 -1.230469 L 5.734375 -1.203125 L 6.394531 -1.230469 L 6.855469 -1.078125 L 7.148438 -0.851562 L 7.21875 -0.601562 L 7.371094 -0.351562 L 7.609375 -0.125 L 7.972656 0.015625 L 8.226562 -0.015625 L 8.714844 0.0273438 L 9.582031 0 L 9.832031 -0.0820312 L 9.890625 -0.378906 L 9.804688 -0.726562 L 9.707031 -0.980469 L 9.527344 -1.21875 L 9.441406 -1.496094 L 9.300781 -1.707031 L 9.21875 -1.972656 L 8.980469 -2.476562 L 8.882812 -2.742188 L 8.742188 -2.980469 L 8.546875 -3.496094 L 8.394531 -3.722656 L 8.28125 -4 L 8.15625 -4.238281 L 8.058594 -4.519531 L 7.929688 -4.726562 L 7.847656 -5.007812 L 7.695312 -5.257812 L 7.582031 -5.496094 L 7.441406 -5.734375 L 7.371094 -6 L 7.09375 -6.492188 L 7.007812 -6.757812 L 6.757812 -7.289062 L 6.6875 -7.511719 L 6.476562 -8 L 6.195312 -8.519531 L 5.972656 -9.050781 L 5.847656 -9.261719 L 5.761719 -9.527344 L 5.511719 -9.792969 L 5.035156 -9.917969 L 4.589844 -9.777344 L 4.324219 -9.527344 L 4.238281 -9.273438 L 3.636719 -8.015625 L 3.484375 -7.761719 L 2.699219 -6 L 2.628906 -5.761719 L 2.476562 -5.511719 L 2.253906 -5.007812 L 2.042969 -4.644531 L 1.945312 -4.378906 L 1.75 -4.015625 L 1.664062 -3.722656 L 1.539062 -3.496094 L 1.441406 -3.21875 L 1.050781 -2.488281 L 0.644531 -1.46875 L 0.476562 -1.246094 L 0.351562 -0.964844 Z M 4.503906 -3.457031 L 4.238281 -3.566406 L 4.195312 -3.847656 L 4.757812 -5.121094 L 4.882812 -5.34375 L 5.0625 -5.484375 L 5.230469 -5.371094 L 5.414062 -4.824219 L 5.566406 -4.589844 L 5.625 -4.363281 L 5.761719 -4.085938 L 5.859375 -3.832031 L 5.832031 -3.582031 L 5.59375 -3.46875 Z M 4.503906 -3.457031 "/></g></g></g><g fill="#ffffff" fill-opacity="1"><g transform="translate(575.781059, 463.7645)"><g><path d="M 1.175781 -3.425781 L 1.273438 -3.160156 L 1.582031 -3.019531 L 2.9375 -3.019531 L 3.1875 -3.050781 L 3.457031 -3.203125 L 3.59375 -3.457031 L 3.609375 -3.734375 L 3.59375 -4.015625 L 3.664062 -4.617188 L 3.621094 -5.148438 L 3.664062 -6.53125 L 3.707031 -6.8125 L 3.691406 -7.09375 L 3.734375 -7.398438 L 3.707031 -7.707031 L 3.734375 -7.972656 L 3.691406 -8.238281 L 3.734375 -8.53125 L 3.691406 -9.121094 L 3.707031 -9.359375 L 3.59375 -9.625 L 3.328125 -9.777344 L 2.335938 -9.820312 L 2.070312 -9.792969 L 1.355469 -9.820312 L 1.089844 -9.625 L 0.9375 -9.34375 L 1.007812 -8.8125 L 0.992188 -8.238281 L 1.019531 -7.929688 L 1.007812 -7.695312 L 1.078125 -6.855469 L 1.050781 -6.546875 L 1.078125 -6.253906 L 1.078125 -5.425781 L 1.117188 -5.121094 Z M 0.980469 -1.371094 L 0.992188 -0.867188 L 1.035156 -0.714844 L 1.105469 -0.558594 L 1.1875 -0.449219 L 1.34375 -0.320312 L 1.414062 -0.210938 L 1.734375 -0.0273438 L 1.859375 0.015625 L 2.042969 0.0546875 L 2.53125 0.0703125 L 2.6875 0.0273438 L 2.824219 0.0273438 L 2.980469 -0.0273438 L 3.160156 -0.140625 L 3.273438 -0.195312 L 3.398438 -0.308594 L 3.523438 -0.449219 L 3.621094 -0.585938 L 3.75 -1.019531 L 3.761719 -1.34375 L 3.707031 -1.511719 L 3.679688 -1.664062 L 3.59375 -1.847656 L 3.496094 -1.984375 L 3.398438 -2.070312 L 3.300781 -2.210938 L 3.148438 -2.292969 L 3.019531 -2.378906 L 2.855469 -2.40625 L 2.671875 -2.476562 L 2.519531 -2.488281 L 2.195312 -2.476562 L 1.886719 -2.421875 L 1.707031 -2.363281 L 1.59375 -2.308594 L 1.316406 -2.070312 L 1.089844 -1.832031 L 1.050781 -1.691406 L 0.980469 -1.539062 Z M 0.980469 -1.371094 "/></g></g></g></svg>